<?xml version="1.0" encoding="UTF-8" standalone="no"?>
<!DOCTYPE svg PUBLIC "-//W3C//DTD SVG 1.1//EN" "http://www.w3.org/Graphics/SVG/1.1/DTD/svg11.dtd">
<svg width="100%" height="100%" viewBox="0 0 29 29" version="1.1" xmlns="http://www.w3.org/2000/svg" xmlns:xlink="http://www.w3.org/1999/xlink" xml:space="preserve" xmlns:serif="http://www.serif.com/" style="fill-rule:evenodd;clip-rule:evenodd;stroke-linejoin:round;stroke-miterlimit:2;">
    <g transform="matrix(0.24,0,0,0.24,0,0)">
        <g transform="matrix(0.781669,0,0,0.781669,-18.2776,-35.7223)">
            <path id="XMLID_76_" d="M162.9,138.1L162.8,137C162.8,136.2 162.8,135.5 162.7,134.7L163.2,126.5C163.3,125.4 163.2,124.4 163.1,123.3C167,110.9 166.5,90.4 156.2,73.8C148.3,61 136.4,53.5 121.8,51.9C120.3,51.7 118.8,51.8 117.4,52C111.3,48.8 106.1,47.6 105.4,47.5C103.4,47.1 101.4,47 99.4,47.3C99.3,47.3 99.2,47.2 99.1,47.2C95.9,46.2 92.9,45.7 90.1,45.7C85.2,45.7 81.9,47.1 80.3,47.8C78.1,48.6 75.8,50 73.4,52C68.1,52.1 64.2,54.9 62.6,56C37.5,71.8 28,95.4 34.5,126.1C35.2,129.5 36.7,136.4 40.9,143.1C40.7,144 40.7,144.9 40.7,145.8L40.7,156.2C40.7,160.3 42.2,164.2 45,167.2L45,177.8C45,181.9 46.6,185.8 49.4,188.9L51.6,191.2C54.6,194.4 58.9,196.3 63.4,196.3C66.8,196.3 70,195.3 72.8,193.3L74.7,192C75.4,191.5 76,191 76.6,190.4C81.1,190.8 85.6,189.4 89,186.4L90.5,185C90.8,184.8 91,184.5 91.3,184.3C92.9,191 98.7,196.1 105.8,196.6L107.9,196.8L109.1,196.8C114.6,196.8 119.6,194.1 122.5,189.6C127.9,189.4 132.9,186.4 135.7,181.8C141,181.3 145.7,178.3 148.3,173.8C154.6,173.1 160,168.7 161.9,162.5L162.7,159.7C163.2,158 163.4,156.3 163.4,154.6L163,139.4C162.9,138.9 162.9,138.5 162.9,138.1ZM155,123.9C155.1,124.6 155.2,125.3 155.1,126L154.5,134.7L154.5,135.1C154.6,135.7 154.7,136.3 154.6,136.9L154.6,137.2L154.8,138.8L154.8,139.4L155.2,154.6C155.2,155.5 155.1,156.3 154.9,157.2L154,160C153,163.4 149.8,165.7 146.3,165.7L145.7,165.7L143.6,165.5C143.3,165.5 143,165.4 142.7,165.4L141.9,167.9C140.9,171.3 137.7,173.6 134.2,173.6L133.6,173.6L131.5,173.5C131.1,173.5 130.6,173.4 130.2,173.3L129.5,175.7C128.5,179.1 125.3,181.4 121.8,181.4L121.2,181.4L119.1,181.2C118.5,181.2 117.9,181 117.3,180.9L116.7,182.9C115.7,186.3 112.5,188.6 109,188.6L108.4,188.6L106.3,188.4C102.2,188.1 99,184.8 98.8,180.7L98.5,172.3L97.4,172.1L95.6,173.4C94.2,174.5 92.5,175 90.8,175C89.7,175 88.6,174.8 87.6,174.3C87.3,176 86.4,177.7 85.1,178.9L83.6,180.3C82.1,181.6 80.2,182.4 78.2,182.4C77.2,182.4 76.1,182.2 75.1,181.8L73.6,181.2C73.4,181.1 73.2,181 73.1,181C72.6,182.8 71.5,184.4 70,185.5L68.1,186.8C66.7,187.8 65,188.3 63.4,188.3C61.2,188.3 59.1,187.4 57.5,185.8L55.3,183.5C53.9,182 53.1,180 53.1,178L53.1,163.6C50.5,162.2 48.8,159.5 48.8,156.5L48.8,146.1C48.8,145.5 48.9,144.9 49,144.3L49.2,143.6C49.3,143 49.5,142.4 49.8,141.9C44.8,135.8 43.3,128.7 42.4,124.8C36.7,97.4 45,76.6 67.2,62.8C68.7,61.7 70.9,60.2 73.8,60.2C74.6,60.2 75.4,60.3 76.2,60.6C79.1,57.5 81.5,56.1 83.2,55.5L83.4,55.4C84.6,54.9 86.7,53.9 90,53.9C92,53.9 94.2,54.3 96.6,55C97.3,55.2 98,55.5 98.7,55.9C99.7,55.5 100.8,55.3 101.8,55.3C102.4,55.3 102.9,55.4 103.5,55.5C103.6,55.5 109.8,57 116.2,60.9C117.3,60.3 118.6,60 119.8,60L120.7,60C132.7,61.3 142.6,67.6 149.1,78.2C157.9,92.5 158.6,111.4 154.7,122.1C154.7,122.2 154.6,122.4 154.6,122.6C154.9,123 155,123.4 155,123.9ZM120,68C119.2,68 122.4,73.1 125.5,78.3C128.6,83.4 131.8,88.6 131.2,88.6C130.5,88.4 124.3,77.8 116.5,70.8C110.7,65.6 102.6,63.5 102,63.4C101.1,63.4 109.3,80.4 110.4,88.2C111.8,98.4 112.8,109.8 112.8,109.8C112.8,109.8 104.9,66.1 94.4,62.8C92.6,62.2 91.2,62 90.2,62C88,62 87,62.9 85.9,63.2C83.2,64 77.2,71.8 72,80.8C69.5,85.1 68.1,93.6 68.5,95.8C65.8,81.6 75.7,68.4 74,68.4C73.7,68.4 73.1,68.8 71.9,69.6C43.8,86.7 48,112 50.3,122.9C51.3,127.7 53.1,135.3 59.6,140C59.6,140.2 59.7,140.3 59.7,140.4L59.7,140.5C59.9,141.4 59.9,141.7 58.6,143.2L58.3,143.2L58.2,143.3L92.4,149.9L57,145.2L56.8,146L56.8,156.4L61.1,157.1L61.1,178L63.3,180.3L65.2,179L65.2,157.9L76.4,160.2L76.6,173.9L78.1,174.5L79.6,173.1L79.6,160.4L89.7,162.5L89.9,166.2L90.8,167.2L92.7,165.8L92.8,163.2L101.2,164.9L104.9,162.4L105.4,162.1L105.3,160.6L106.1,159.8L106.9,180.6L109,180.8L109.8,178.1L109.4,162.9L109.4,158.8L106.8,155L110.3,158.1L110.3,159.4L117,155.2L118,154.6L118.1,153.6L118.9,153L119.1,157.3L119.7,173.6L121.8,173.8L122.6,171.1L122.2,155.9L122.2,154.6L122.3,152.5L122.2,151.3L119.6,147.5L123.1,150.6L123.1,151.7L129.5,147.5L130.5,146.8L130.5,146L131.3,145.3L132.1,165.9L134.2,166L135,163.3L134.6,148.1L134.5,145.9L134.5,144.6L134.4,143.1L131.8,139.3L135.3,142.4L135.3,143.6L142.2,138.9L142.6,138.6L142.6,138L143.3,137.6L144,157.9L146.1,158.1L146.9,155.4L146.5,140.2L146.3,138L146.3,137.2L146.2,136.5L146.1,136.2L143.5,132.4C143.5,132.4 145.2,133.9 146.2,134.8L146.8,126.1L116.5,144C116.5,144 145.4,125.1 146.4,124L147,123.7L146.8,123.3C146.8,123.2 146.9,121.2 147.4,119.4C152.6,105.1 147.5,70.9 120,68Z" style="fill-rule:nonzero;"/>
        </g>
    </g>
</svg>
