<?xml version="1.0" encoding="UTF-8" standalone="no"?>
<!-- Generator: Adobe Illustrator 19.0.0, SVG Export Plug-In . SVG Version: 6.00 Build 0)  -->

<svg
   xmlns:dc="http://purl.org/dc/elements/1.1/"
   xmlns:cc="http://creativecommons.org/ns#"
   xmlns:rdf="http://www.w3.org/1999/02/22-rdf-syntax-ns#"
   xmlns:svg="http://www.w3.org/2000/svg"
   xmlns="http://www.w3.org/2000/svg"
   xmlns:sodipodi="http://sodipodi.sourceforge.net/DTD/sodipodi-0.dtd"
   xmlns:inkscape="http://www.inkscape.org/namespaces/inkscape"
   version="1.2"
   id="Layer_1"
   x="0px"
   y="0px"
   viewBox="0 0 200 347"
   xml:space="preserve"
   sodipodi:docname="dsl-front-1.svg"
   inkscape:version="0.92.2 (5c3e80d, 2017-08-06)"><metadata
     id="metadata51"><rdf:RDF><cc:Work
         rdf:about=""><dc:format>image/svg+xml</dc:format><dc:type
           rdf:resource="http://purl.org/dc/dcmitype/StillImage" /></cc:Work></rdf:RDF></metadata><defs
     id="defs49" /><sodipodi:namedview
     pagecolor="#ffffff"
     bordercolor="#666666"
     borderopacity="1"
     objecttolerance="10"
     gridtolerance="10"
     guidetolerance="10"
     inkscape:pageopacity="0"
     inkscape:pageshadow="2"
     inkscape:window-width="1910"
     inkscape:window-height="1054"
     id="namedview47"
     showgrid="false"
     inkscape:zoom="1.9236565"
     inkscape:cx="8.2790865"
     inkscape:cy="199.01527"
     inkscape:window-x="0"
     inkscape:window-y="0"
     inkscape:window-maximized="0"
     inkscape:current-layer="Layer_1"
     showguides="true"
     inkscape:guide-bbox="true"><sodipodi:guide
       position="-322.30286,320.22349"
       orientation="0,1"
       id="guide85"
       inkscape:locked="false" /><sodipodi:guide
       position="11.956397,294.75117"
       orientation="1,0"
       id="guide89"
       inkscape:locked="false" /></sodipodi:namedview><rect
     id="XMLID_81_"
     fill="#E01F30"
     width="200"
     height="347" /><path
     style="fill:#ffffff"
     inkscape:connector-curvature="0"
     d="m 162.9,120.1 -0.1,-1.1 c 0,-0.8 0,-1.5 -0.1,-2.3 l 0.5,-8.2 c 0.1,-1.1 0,-2.1 -0.1,-3.2 3.9,-12.4 3.4,-32.9 -6.9,-49.5 -7.9,-12.8 -19.8,-20.3 -34.4,-21.9 -1.5,-0.2 -3,-0.1 -4.4,0.1 -6.1,-3.2 -11.3,-4.4 -12,-4.5 -2,-0.4 -4,-0.5 -6,-0.2 -0.1,0 -0.2,-0.1 -0.3,-0.1 -3.2,-1 -6.2,-1.5 -9,-1.5 -4.9,0 -8.2,1.4 -9.8,2.1 -2.2,0.8 -4.5,2.2 -6.9,4.2 -5.3,0.1 -9.2,2.9 -10.8,4 -25.1,15.8 -34.6,39.4 -28.1,70.1 0.7,3.4 2.2,10.3 6.4,17 -0.2,0.9 -0.2,1.8 -0.2,2.7 v 10.4 c 0,4.1 1.5,8 4.3,11 v 10.6 c 0,4.1 1.6,8 4.4,11.1 l 2.2,2.3 c 3,3.2 7.3,5.1 11.8,5.1 3.4,0 6.6,-1 9.4,-3 l 1.9,-1.3 c 0.7,-0.5 1.3,-1 1.9,-1.6 4.5,0.4 9,-1 12.4,-4 l 1.5,-1.4 c 0.3,-0.2 0.5,-0.5 0.8,-0.7 1.6,6.7 7.4,11.8 14.5,12.3 l 2.1,0.2 c 0.4,0 0.8,0 1.2,0 5.5,0 10.5,-2.7 13.4,-7.2 5.4,-0.2 10.4,-3.2 13.2,-7.8 5.3,-0.5 10,-3.5 12.6,-8 6.3,-0.7 11.7,-5.1 13.6,-11.3 l 0.8,-2.8 c 0.5,-1.7 0.7,-3.4 0.7,-5.1 L 163,121.4 c -0.1,-0.5 -0.1,-0.9 -0.1,-1.3 z M 155,105.9 c 0.1,0.7 0.2,1.4 0.1,2.1 l -0.6,8.7 c 0,0.1 0,0.2 0,0.3 v 0.1 c 0.1,0.6 0.2,1.2 0.1,1.8 v 0.3 l 0.2,1.6 c 0,0.2 0,0.4 0,0.6 l 0.4,15.2 c 0,0.9 -0.1,1.7 -0.3,2.6 L 154,142 c -1,3.4 -4.2,5.7 -7.7,5.7 -0.2,0 -0.4,0 -0.6,0 l -2.1,-0.2 c -0.3,0 -0.6,-0.1 -0.9,-0.1 l -0.8,2.5 c -1,3.4 -4.2,5.7 -7.7,5.7 -0.2,0 -0.4,0 -0.6,0 l -2.1,-0.1 c -0.4,0 -0.9,-0.1 -1.3,-0.2 l -0.7,2.4 c -1,3.4 -4.2,5.7 -7.7,5.7 -0.2,0 -0.4,0 -0.6,0 l -2.1,-0.2 c -0.6,0 -1.2,-0.2 -1.8,-0.3 l -0.6,2 c -1,3.4 -4.2,5.7 -7.7,5.7 -0.2,0 -0.4,0 -0.6,0 l -2.1,-0.2 c -4.1,-0.3 -7.3,-3.6 -7.5,-7.7 l -0.3,-8.4 -1.1,-0.2 -1.8,1.3 c -1.4,1.1 -3.1,1.6 -4.8,1.6 -1.1,0 -2.2,-0.2 -3.2,-0.7 -0.3,1.7 -1.2,3.4 -2.5,4.6 l -1.5,1.4 c -1.5,1.3 -3.4,2.1 -5.4,2.1 -1,0 -2.1,-0.2 -3.1,-0.6 l -1.5,-0.6 c -0.2,-0.1 -0.4,-0.2 -0.5,-0.2 -0.5,1.8 -1.6,3.4 -3.1,4.5 l -1.9,1.3 c -1.4,1 -3.1,1.5 -4.7,1.5 -2.2,0 -4.3,-0.9 -5.9,-2.5 l -2.2,-2.3 C 53.9,164 53.1,162 53.1,160 v -14.4 c -2.6,-1.4 -4.3,-4.1 -4.3,-7.1 v -10.4 c 0,-0.6 0.1,-1.2 0.2,-1.8 l 0.2,-0.7 c 0.1,-0.6 0.3,-1.2 0.6,-1.7 -5,-6.1 -6.5,-13.2 -7.4,-17.1 -5.7,-27.4 2.6,-48.2 24.8,-62 1.5,-1.1 3.7,-2.6 6.6,-2.6 0.8,0 1.6,0.1 2.4,0.4 2.9,-3.1 5.3,-4.5 7,-5.1 l 0.2,-0.1 c 1.2,-0.5 3.3,-1.5 6.6,-1.5 2,0 4.2,0.4 6.6,1.1 0.7,0.2 1.4,0.5 2.1,0.9 1,-0.4 2.1,-0.6 3.1,-0.6 0.6,0 1.1,0.1 1.7,0.2 0.1,0 6.3,1.5 12.7,5.4 1.1,-0.6 2.4,-0.9 3.6,-0.9 0.3,0 0.6,0 0.9,0 12,1.3 21.9,7.6 28.4,18.2 8.8,14.3 9.5,33.2 5.6,43.9 0,0.1 -0.1,0.3 -0.1,0.5 0.3,0.4 0.4,0.8 0.4,1.3 z M 120,50 v 0 c -0.8,0 2.4,5.1 5.5,10.3 3.1,5.1 6.3,10.3 5.7,10.3 0,0 0,0 0,0 -0.7,-0.2 -6.9,-10.8 -14.7,-17.8 -5.8,-5.2 -13.9,-7.3 -14.5,-7.4 v 0 c -0.9,0 7.3,17 8.4,24.8 1.4,10.2 2.4,21.6 2.4,21.6 0,0 -7.9,-43.7 -18.4,-47 C 92.6,44.2 91.2,44 90.2,44 88,44 87,44.9 85.9,45.2 83.2,46 77.2,53.8 72,62.8 c -2.5,4.3 -3.9,12.8 -3.5,15 -2.7,-14.2 7.2,-27.4 5.5,-27.4 -0.3,0 -0.9,0.4 -2.1,1.2 C 43.8,68.7 48,94 50.3,104.9 c 1,4.8 2.8,12.4 9.3,17.1 0,0.2 0.1,0.3 0.1,0.4 v 0 c 0,0 0,0.1 0,0.1 0.2,0.9 0.2,1.2 -1.1,2.7 h -0.3 c -0.1,0.1 -0.1,0.1 -0.1,0.1 l 34.2,6.6 -35.4,-4.7 -0.2,0.8 v 10.4 l 4.3,0.7 V 160 l 2.2,2.3 1.9,-1.3 v -21.1 l 11.2,2.3 0.2,13.7 1.5,0.6 1.5,-1.4 v -12.7 l 10.1,2.1 0.2,3.7 0.9,1 1.9,-1.4 0.1,-2.6 8.4,1.7 3.7,-2.5 0.5,-0.3 -0.1,-1.5 0.8,-0.8 0.8,20.8 2.1,0.2 0.8,-2.7 -0.4,-15.2 v -1.7 -1.4 0 -1 l -2.6,-3.8 3.5,3.1 v 1.3 l 6.7,-4.2 1,-0.6 0.1,-1 0.8,-0.6 0.2,4.3 0.6,16.3 2.1,0.2 0.8,-2.7 -0.4,-15.2 v -1.3 l 0.1,-2.1 -0.1,-1.2 -2.6,-3.8 3.5,3.1 v 1.1 l 6.4,-4.2 1,-0.7 V 128 l 0.8,-0.7 0.8,20.6 2.1,0.1 0.8,-2.7 -0.4,-15.2 -0.1,-2.2 v -1.3 0 l -0.1,-1.5 -2.6,-3.8 3.5,3.1 v 1.2 l 6.9,-4.7 0.4,-0.3 V 120 l 0.7,-0.4 0.7,20.3 2.1,0.2 0.8,-2.7 -0.4,-15.2 -0.2,-2.2 v -0.8 l -0.1,-0.7 v 0 0 l -0.1,-0.3 -2.6,-3.8 c 0,0 1.7,1.5 2.7,2.4 l 0.6,-8.7 -30.3,17.9 c 0,0 28.9,-18.9 29.9,-20 l 0.6,-0.3 -0.2,-0.4 c 0,-0.1 0.1,-2.1 0.6,-3.9 C 152.6,87.1 147.5,52.9 120,50 Z"
     id="XMLID_76_" /><g
     id="XMLID_51_"
     transform="translate(0,-18)"><path
       style="fill:#ffffff"
       inkscape:connector-curvature="0"
       d="m 40.4,267.2 c 0,-0.9 0.6,-1.5 1.5,-1.5 h 3.3 c 4.5,0 7.1,2.9 7.1,7.3 0,4.2 -2.7,6.9 -6.9,6.9 H 42 c -0.7,0 -1.6,-0.4 -1.6,-1.5 z m 3,9.9 h 2 c 2.6,0 3.8,-1.9 3.8,-4.3 0,-2.6 -1.2,-4.4 -4,-4.4 h -1.8 z"
       id="XMLID_73_" /><path
       style="fill:#ffffff"
       inkscape:connector-curvature="0"
       d="m 53.8,267.1 c 0,-1 0.6,-1.6 1.5,-1.6 0.9,0 1.5,0.6 1.5,1.6 v 11.4 c 0,1 -0.6,1.6 -1.5,1.6 -0.9,0 -1.5,-0.6 -1.5,-1.6 z"
       id="XMLID_71_" /><path
       style="fill:#ffffff"
       inkscape:connector-curvature="0"
       d="m 60,267.1 c 0.1,-0.7 0.9,-1.5 2,-1.5 1,0 1.8,0.7 2,1.4 l 2.4,7.9 v 0 l 2.4,-7.9 c 0.2,-0.7 1,-1.4 2,-1.4 1.1,0 1.8,0.8 2,1.5 l 1.9,11.2 c 0,0.1 0,0.2 0,0.3 0,0.9 -0.6,1.4 -1.4,1.4 -1,0 -1.4,-0.5 -1.6,-1.4 l -1.2,-8.2 v 0 l -2.4,8.4 c -0.1,0.5 -0.5,1.2 -1.6,1.2 -1.1,0 -1.5,-0.7 -1.6,-1.2 l -2.4,-8.4 v 0 l -1.2,8.2 c -0.1,0.9 -0.5,1.4 -1.6,1.4 -0.8,0 -1.4,-0.6 -1.4,-1.4 0,-0.1 0,-0.2 0,-0.3 z"
       id="XMLID_69_" /><path
       style="fill:#ffffff"
       inkscape:connector-curvature="0"
       d="m 84.5,267.4 c 0,0.8 -0.5,1.5 -1.3,1.5 -0.8,0 -1.5,-0.6 -2.7,-0.6 -0.9,0 -1.6,0.5 -1.6,1.3 0,2.1 6.7,0.7 6.7,5.9 0,2.9 -2.4,4.7 -5.1,4.7 -1.5,0 -4.9,-0.4 -4.9,-2.2 0,-0.8 0.5,-1.4 1.3,-1.4 0.9,0 2.1,0.8 3.4,0.8 1.3,0 2,-0.7 2,-1.7 0,-2.4 -6.7,-0.9 -6.7,-5.6 0,-2.8 2.3,-4.6 5,-4.6 1.1,-0.1 3.9,0.3 3.9,1.9 z"
       id="XMLID_67_" /><path
       style="fill:#ffffff"
       inkscape:connector-curvature="0"
       d="m 86.7,267.1 c 0,-1 0.6,-1.6 1.5,-1.6 0.9,0 1.5,0.6 1.5,1.6 v 7 c 0,1.8 1.2,3.3 3.1,3.3 1.8,0 3.1,-1.5 3.1,-3.3 v -7 c 0,-1 0.6,-1.6 1.5,-1.6 0.9,0 1.5,0.6 1.5,1.6 v 7.2 c 0,3.4 -2.8,5.9 -6.1,5.9 -3.3,0 -6.1,-2.5 -6.1,-5.9 z"
       id="XMLID_65_" /><path
       style="fill:#ffffff"
       inkscape:connector-curvature="0"
       d="m 101.5,267.1 c 0.1,-0.7 0.9,-1.5 2,-1.5 1,0 1.8,0.7 2,1.4 l 2.4,7.9 v 0 l 2.4,-7.9 c 0.2,-0.7 1,-1.4 2,-1.4 1.1,0 1.8,0.8 2,1.5 l 1.9,11.2 c 0,0.1 0,0.2 0,0.3 0,0.9 -0.6,1.4 -1.4,1.4 -1,0 -1.4,-0.5 -1.6,-1.4 l -1.2,-8.2 v 0 l -2.4,8.4 c -0.1,0.5 -0.5,1.2 -1.6,1.2 -1.1,0 -1.5,-0.7 -1.6,-1.2 l -2.4,-8.4 v 0 l -1.2,8.2 c -0.1,0.9 -0.5,1.4 -1.6,1.4 -0.8,0 -1.4,-0.6 -1.4,-1.4 0,-0.1 0,-0.2 0,-0.3 z"
       id="XMLID_63_" /><path
       style="fill:#ffffff"
       inkscape:connector-curvature="0"
       d="m 116.7,267.1 c 0,-1 0.6,-1.6 1.5,-1.6 0.9,0 1.5,0.6 1.5,1.6 v 10.1 h 3.6 c 1,0 1.5,0.8 1.4,1.4 0,0.7 -0.6,1.3 -1.4,1.3 h -5 c -1,0 -1.6,-0.6 -1.6,-1.6 z"
       id="XMLID_61_" /><path
       style="fill:#ffffff"
       inkscape:connector-curvature="0"
       d="m 129.6,267.1 c 0.3,-0.9 1.1,-1.7 2.1,-1.7 1.1,0 1.8,0.7 2.1,1.7 l 3.9,10.9 c 0.1,0.3 0.2,0.6 0.2,0.7 0,0.8 -0.6,1.3 -1.4,1.3 -0.8,0 -1.3,-0.4 -1.5,-1 l -0.6,-1.9 H 129 l -0.6,1.9 c -0.2,0.6 -0.6,1.1 -1.4,1.1 -0.8,0 -1.5,-0.6 -1.5,-1.4 0,-0.3 0.1,-0.6 0.1,-0.7 z m 0.2,7.2 h 3.8 l -1.9,-5.8 v 0 z"
       id="XMLID_58_" /><path
       style="fill:#ffffff"
       inkscape:connector-curvature="0"
       d="m 139.2,267.1 c 0,-1 0.7,-1.5 1.6,-1.5 h 3.8 c 2.1,0 3.8,1.4 3.8,3.5 0,1.4 -0.6,2.3 -1.9,2.9 v 0 c 1.7,0.2 3,1.7 3,3.4 0,2.8 -1.9,4.4 -4.7,4.4 h -4.1 c -0.9,0 -1.6,-0.6 -1.6,-1.5 v -11.2 z m 3,4.2 h 1.6 c 1,0 1.6,-0.6 1.6,-1.6 0,-0.9 -0.7,-1.4 -1.6,-1.4 h -1.6 z m 0,6 h 2.4 c 1.1,0 1.9,-0.6 1.9,-1.7 0,-0.9 -0.7,-1.6 -2.1,-1.6 h -2.1 v 3.3 z"
       id="XMLID_54_" /><path
       style="fill:#ffffff"
       inkscape:connector-curvature="0"
       d="m 159.2,267.4 c 0,0.8 -0.5,1.5 -1.3,1.5 -0.8,0 -1.5,-0.6 -2.7,-0.6 -0.9,0 -1.6,0.5 -1.6,1.3 0,2.1 6.7,0.7 6.7,5.9 0,2.9 -2.4,4.7 -5.1,4.7 -1.5,0 -4.9,-0.4 -4.9,-2.2 0,-0.8 0.5,-1.4 1.3,-1.4 0.9,0 2.1,0.8 3.4,0.8 1.3,0 2,-0.7 2,-1.7 0,-2.4 -6.7,-0.9 -6.7,-5.6 0,-2.8 2.3,-4.6 5,-4.6 1.1,-0.1 3.9,0.3 3.9,1.9 z"
       id="XMLID_52_" /></g><g
     id="XMLID_36_"
     transform="translate(0,-18)"><g
       id="XMLID_49_"><path
         style="fill:#ffffff"
         inkscape:connector-curvature="0"
         d="m 58.5,260 c -1.7,0 -3,-1.3 -3,-3 v -22.4 c 0,-1 0.5,-1.9 1.3,-2.4 L 72.4,221 v -18.9 c 0,-1.7 1.3,-3 3,-3 1.7,0 3,1.3 3,3 v 20.4 c 0,1 -0.5,1.9 -1.3,2.4 L 61.5,236.1 V 257 c 0,1.7 -1.3,3 -3,3 z"
         id="XMLID_50_" /></g><g
       id="XMLID_47_"><path
         style="fill:#ffffff"
         inkscape:connector-curvature="0"
         d="m 72.4,260 c -1.7,0 -3,-1.3 -3,-3 v -7.6 c 0,-0.9 0.4,-1.8 1.2,-2.4 l 13.7,-10.5 v -40.1 c 0,-1.7 1.3,-3 3,-3 1.7,0 3,1.3 3,3 V 238 c 0,0.9 -0.4,1.8 -1.2,2.4 l -13.7,10.5 v 6.2 c 0,1.6 -1.3,2.9 -3,2.9 z"
         id="XMLID_48_" /></g><g
       id="XMLID_45_"><path
         style="fill:#ffffff"
         inkscape:connector-curvature="0"
         d="m 118.9,260 c -1.7,0 -3,-1.3 -3,-3 v -7.6 l -7.3,-9.4 c -0.4,-0.5 -0.6,-1.2 -0.6,-1.8 v -33.5 c 0,-1.7 1.3,-3 3,-3 1.7,0 3,1.3 3,3 v 32.5 l 7.3,9.4 c 0.4,0.5 0.6,1.2 0.6,1.8 v 8.7 c 0,1.6 -1.3,2.9 -3,2.9 z"
         id="XMLID_46_" /></g><g
       id="XMLID_43_"><path
         style="fill:#ffffff"
         inkscape:connector-curvature="0"
         d="m 130.8,260 c -1.7,0 -3,-1.3 -3,-3 v -21 h -4.9 c -1.7,0 -3,-1.3 -3,-3 v -32.5 c 0,-1.7 1.3,-3 3,-3 1.7,0 3,1.3 3,3 V 230 h 4.9 c 1.7,0 3,1.3 3,3 v 24 c 0,1.7 -1.3,3 -3,3 z"
         id="XMLID_44_" /></g><g
       id="XMLID_41_"><path
         style="fill:#ffffff"
         inkscape:connector-curvature="0"
         d="m 142.7,260 c -1.7,0 -3,-1.3 -3,-3 v -28 l -7.4,-12.3 c -0.3,-0.5 -0.4,-1 -0.4,-1.6 v -19.9 c 0,-1.7 1.3,-3 3,-3 1.7,0 3,1.3 3,3 v 19.1 l 7.4,12.3 c 0.3,0.5 0.4,1 0.4,1.6 V 257 c 0,1.7 -1.4,3 -3,3 z"
         id="XMLID_42_" /></g><g
       id="XMLID_39_"><path
         style="fill:#ffffff"
         inkscape:connector-curvature="0"
         d="M 159.7,291.8 H 40.3 c -5.4,0 -9.8,-4.4 -9.8,-9.8 v -18.2 c 0,-5.4 4.4,-9.8 9.8,-9.8 H 41 v -30.5 c 0,-0.9 0.4,-1.8 1.2,-2.4 l 18.3,-13.8 v -3.7 c 0,-1.7 1.3,-3 3,-3 1.7,0 3,1.3 3,3 v 5.2 c 0,0.9 -0.4,1.8 -1.2,2.4 L 47,225 v 32 c 0,1.7 -1.3,3 -3,3 h -3.7 c -2.1,0 -3.8,1.7 -3.8,3.8 V 282 c 0,2.1 1.7,3.8 3.8,3.8 h 119.3 c 2.1,0 3.8,-1.7 3.8,-3.8 v -18.2 c 0,-2.1 -1.7,-3.8 -3.8,-3.8 H 155 c -1.7,0 -3,-1.3 -3,-3 v -41.3 h -5.3 c -1.7,0 -3,-1.3 -3,-3 v -28.2 c 0,-1.7 1.3,-3 3,-3 1.7,0 3,1.3 3,3 v 25.2 h 5.3 c 1.7,0 3,1.3 3,3 V 254 h 1.7 c 5.4,0 9.8,4.4 9.8,9.8 V 282 c -0.1,5.4 -4.5,9.8 -9.8,9.8 z"
         id="XMLID_40_" /></g><g
       id="XMLID_37_"><path
         style="fill:#ffffff"
         inkscape:connector-curvature="0"
         d="m 98.7,260 c 0,0 0,0 0,0 -1.7,0 -3,-1.4 -3,-3 l 0.2,-55.5 c 0,-1.7 1.3,-3 3,-3 0,0 0,0 0,0 1.7,0 3,1.4 3,3 l -0.2,55.5 c 0,1.7 -1.3,3 -3,3 z"
         id="XMLID_38_" /></g></g><text
     xml:space="preserve"
     style="font-style:normal;font-variant:normal;font-weight:bold;font-stretch:normal;font-size:16px;line-height:1.25;font-family:Carlito;-inkscape-font-specification:'Carlito, Bold';font-variant-ligatures:normal;font-variant-caps:normal;font-variant-numeric:normal;font-feature-settings:normal;text-align:center;letter-spacing:0px;word-spacing:0px;writing-mode:lr;text-anchor:middle;fill:#ffffff;fill-opacity:1;stroke:none;"
     x="100.07257"
     y="296.81229"
     id="text97"><tspan
       sodipodi:role="line"
       x="100.07257"
       y="296.81229"
       id="tspan99">http://dimsumlabs.com</tspan><tspan
       sodipodi:role="line"
       x="100.07257"
       y="316.81229"
       id="tspan101">contact@dimsumlabs.com</tspan></text>
</svg>