  0
SECTION
  2
HEADER
  9
$ACADVER
  1
AC1009
  9
$DWGCODEPAGE
  3
ansi_1252
  9
$INSBASE
 10
0.0
 20
0.0
 30
0.0
  9
$EXTMIN
 10
1.000000000000000E+20
 20
1.000000000000000E+20
 30
1.000000000000000E+20
  9
$EXTMAX
 10
-1.000000000000000E+20
 20
-1.000000000000000E+20
 30
-1.000000000000000E+20
  9
$LIMMIN
 10
0.0
 20
0.0
  9
$LIMMAX
 10
12.0
 20
9.0
  9
$ORTHOMODE
 70
     0
  9
$REGENMODE
 70
     1
  9
$FILLMODE
 70
     1
  9
$QTEXTMODE
 70
     0
  9
$MIRRTEXT
 70
     1
  9
$DRAGMODE
 70
     2
  9
$LTSCALE
 40
1.0
  9
$OSMODE
 70
    37
  9
$ATTMODE
 70
     1
  9
$TEXTSIZE
 40
0.2
  9
$TRACEWID
 40
0.05
  9
$TEXTSTYLE
  7
STANDARD
  9
$CLAYER
  8
CUT
  9
$CELTYPE
  6
BYLAYER
  9
$CECOLOR
 62
   256
  9
$DIMSCALE
 40
1.0
  9
$DIMASZ
 40
0.18
  9
$DIMEXO
 40
0.0625
  9
$DIMDLI
 40
0.38
  9
$DIMRND
 40
0.0
  9
$DIMDLE
 40
0.0
  9
$DIMEXE
 40
0.18
  9
$DIMTP
 40
0.0
  9
$DIMTM
 40
0.0
  9
$DIMTXT
 40
0.18
  9
$DIMCEN
 40
0.09
  9
$DIMTSZ
 40
0.0
  9
$DIMTOL
 70
     0
  9
$DIMLIM
 70
     0
  9
$DIMTIH
 70
     1
  9
$DIMTOH
 70
     1
  9
$DIMSE1
 70
     0
  9
$DIMSE2
 70
     0
  9
$DIMTAD
 70
     0
  9
$DIMZIN
 70
     0
  9
$DIMBLK
  1

  9
$DIMASO
 70
     1
  9
$DIMSHO
 70
     1
  9
$DIMPOST
  1

  9
$DIMAPOST
  1

  9
$DIMALT
 70
     0
  9
$DIMALTD
 70
     2
  9
$DIMALTF
 40
25.4
  9
$DIMLFAC
 40
1.0
  9
$DIMTOFL
 70
     0
  9
$DIMTVP
 40
0.0
  9
$DIMTIX
 70
     0
  9
$DIMSOXD
 70
     0
  9
$DIMSAH
 70
     0
  9
$DIMBLK1
  1

  9
$DIMBLK2
  1

  9
$DIMSTYLE
  2
STANDARD_ACAD
  9
$DIMCLRD
 70
     0
  9
$DIMCLRE
 70
     0
  9
$DIMCLRT
 70
     0
  9
$DIMTFAC
 40
1.0
  9
$DIMGAP
 40
0.09
  9
$LUNITS
 70
     2
  9
$LUPREC
 70
     3
  9
$SKETCHINC
 40
0.1
  9
$FILLETRAD
 40
0.5
  9
$AUNITS
 70
     0
  9
$AUPREC
 70
     0
  9
$MENU
  1
.
  9
$ELEVATION
 40
0.0
  9
$PELEVATION
 40
0.0
  9
$THICKNESS
 40
0.0
  9
$LIMCHECK
 70
     0
  9
$CHAMFERA
 40
0.0
  9
$CHAMFERB
 40
0.0
  9
$SKPOLY
 70
     0
  9
$TDCREATE
 40
2459256.461642928
  9
$TDUPDATE
 40
2459256.461656088
  9
$TDINDWG
 40
0.0000000116
  9
$TDUSRTIMER
 40
0.0000000116
  9
$USRTIMER
 70
     1
  9
$ANGBASE
 50
0.0
  9
$ANGDIR
 70
     0
  9
$PDMODE
 70
     0
  9
$PDSIZE
 40
0.0
  9
$PLINEWID
 40
0.0
  9
$COORDS
 70
     1
  9
$SPLFRAME
 70
     0
  9
$SPLINETYPE
 70
     6
  9
$SPLINESEGS
 70
     8
  9
$ATTDIA
 70
     0
  9
$ATTREQ
 70
     1
  9
$HANDLING
 70
     1
  9
$HANDSEED
  5
1EA
  9
$SURFTAB1
 70
     6
  9
$SURFTAB2
 70
     6
  9
$SURFTYPE
 70
     6
  9
$SURFU
 70
     6
  9
$SURFV
 70
     6
  9
$UCSNAME
  2

  9
$UCSORG
 10
0.0
 20
0.0
 30
0.0
  9
$UCSXDIR
 10
1.0
 20
0.0
 30
0.0
  9
$UCSYDIR
 10
0.0
 20
1.0
 30
0.0
  9
$PUCSNAME
  2

  9
$PUCSORG
 10
0.0
 20
0.0
 30
0.0
  9
$PUCSXDIR
 10
1.0
 20
0.0
 30
0.0
  9
$PUCSYDIR
 10
0.0
 20
1.0
 30
0.0
  9
$USERI1
 70
     0
  9
$USERI2
 70
     0
  9
$USERI3
 70
     0
  9
$USERI4
 70
     0
  9
$USERI5
 70
     0
  9
$USERR1
 40
0.0
  9
$USERR2
 40
0.0
  9
$USERR3
 40
0.0
  9
$USERR4
 40
0.0
  9
$USERR5
 40
0.0
  9
$WORLDVIEW
 70
     1
  9
$SHADEDGE
 70
     3
  9
$SHADEDIF
 70
    70
  9
$TILEMODE
 70
     1
  9
$MAXACTVP
 70
    64
  9
$PLIMCHECK
 70
     0
  9
$PEXTMIN
 10
1.000000000000000E+20
 20
1.000000000000000E+20
 30
1.000000000000000E+20
  9
$PEXTMAX
 10
-1.000000000000000E+20
 20
-1.000000000000000E+20
 30
-1.000000000000000E+20
  9
$PLIMMIN
 10
0.0
 20
0.0
  9
$PLIMMAX
 10
12.0
 20
9.0
  9
$UNITMODE
 70
     0
  9
$VISRETAIN
 70
     1
  9
$PLINEGEN
 70
     0
  9
$PSLTSCALE
 70
     1
  0
ENDSEC
  0
SECTION
  2
TABLES
  0
TABLE
  2
VPORT
 70
     1
  0
VPORT
  2
*ACTIVE
 70
     0
 10
0.0
 20
0.0
 11
1.0
 21
1.0
 12
10.42990654205607
 22
4.5
 13
0.0
 23
0.0
 14
0.5
 24
0.5
 15
0.5
 25
0.5
 16
0.0
 26
0.0
 36
1.0
 17
0.0
 27
0.0
 37
0.0
 40
9.0
 41
1.972972972850329
 42
50.0
 43
0.0
 44
0.0
 50
0.0
 51
0.0
 71
     0
 72
   100
 73
     1
 74
     3
 75
     0
 76
     0
 77
     0
 78
     0
  0
ENDTAB
  0
TABLE
  2
LTYPE
 70
     1
  0
LTYPE
  2
CONTINUOUS
 70
     0
  3
Solid line
 72
    65
 73
     0
 40
0.0
  0
ENDTAB
  0
TABLE
  2
LAYER
 70
     2
  0
LAYER
  2
0
 70
     0
 62
     7
  6
CONTINUOUS
  0
LAYER
  2
CUT
 70
     0
 62
     1
  6
CONTINUOUS
  0
ENDTAB
  0
TABLE
  2
STYLE
 70
     1
  0
STYLE
  2
STANDARD
 70
     0
 40
0.0
 41
1.0
 50
0.0
 71
     0
 42
0.2
  3
txt
  4

  0
ENDTAB
  0
TABLE
  2
VIEW
 70
     0
  0
ENDTAB
  0
TABLE
  2
UCS
 70
     0
  0
ENDTAB
  0
TABLE
  2
APPID
 70
     1
  0
APPID
  2
ACAD
 70
     0
  0
ENDTAB
  0
TABLE
  2
DIMSTYLE
 70
     1
  0
DIMSTYLE
  2
STANDARD_ACAD
 70
     0
  3

  4

  5

  6

  7

 40
1.0
 41
0.18
 42
0.0625
 43
0.38
 44
0.18
 45
0.0
 46
0.0
 47
0.0
 48
0.0
140
0.18
141
0.09
142
0.0
143
25.4
144
1.0
145
0.0
146
1.0
147
0.09
 71
     0
 72
     0
 73
     1
 74
     1
 75
     0
 76
     0
 77
     0
 78
     0
170
     0
171
     2
172
     0
173
     0
174
     0
175
     0
176
     0
177
     0
178
     0
  0
ENDTAB
  0
ENDSEC
  0
SECTION
  2
BLOCKS
  0
BLOCK
  8
0
  2
$MODEL_SPACE
 70
     0
 10
0.0
 20
0.0
 30
0.0
  3
$MODEL_SPACE
  1

  0
ENDBLK
  5
21
  8
0
  0
BLOCK
 67
     1
  8
0
  2
$PAPER_SPACE
 70
     0
 10
0.0
 20
0.0
 30
0.0
  3
$PAPER_SPACE
  1

  0
ENDBLK
  5
1D
 67
     1
  8
0
  0
ENDSEC
  0
SECTION
  2
ENTITIES
  0
LINE
  5
6F
  8
CUT
 10
0.0
 20
0.5
 30
0.0
 11
0.000291488816913
 21
0.4829294449070161
 31
0.0
  0
LINE
  5
70
  8
CUT
 10
0.000291488816913
 20
0.4829294449070161
 30
0.0
 11
0.0011656154047304
 21
0.4658787933176645
 31
0.0
  0
LINE
  5
71
  8
CUT
 10
0.0011656154047304
 20
0.4658787933176645
 30
0.0
 11
0.0026213605709526
 21
0.4488679255289829
 31
0.0
  0
LINE
  5
72
  8
CUT
 10
0.0026213605709526
 20
0.4488679255289829
 30
0.0
 11
0.0046570269818346
 21
0.4319166754518767
 31
0.0
  0
LINE
  5
73
  8
CUT
 10
0.0046570269818346
 20
0.4319166754518767
 30
0.0
 11
0.0072702411414016
 21
0.4150448074856667
 31
0.0
  0
LINE
  5
74
  8
CUT
 10
0.0072702411414016
 20
0.4150448074856667
 30
0.0
 11
0.0104579561588385
 21
0.3982719934736831
 31
0.0
  0
LINE
  5
75
  8
CUT
 10
0.0104579561588385
 20
0.3982719934736831
 30
0.0
 11
0.0142164553010293
 21
0.3816177897667766
 31
0.0
  0
LINE
  5
76
  8
CUT
 10
0.0142164553010293
 20
0.3816177897667766
 30
0.0
 11
0.0185413563261003
 21
0.3651016144214879
 31
0.0
  0
LINE
  5
77
  8
CUT
 10
0.0185413563261003
 20
0.3651016144214879
 30
0.0
 11
0.0234276165929196
 21
0.3487427245594621
 31
0.0
  0
LINE
  5
78
  8
CUT
 10
0.0234276165929196
 20
0.3487427245594621
 30
0.0
 11
0.0288695389405897
 21
0.332560193914507
 31
0.0
  0
LINE
  5
79
  8
CUT
 10
0.0288695389405897
 20
0.332560193914507
 30
0.0
 11
0.0348607783310834
 21
0.3165728905934717
 31
0.0
  0
LINE
  5
7A
  8
CUT
 10
0.0348607783310834
 20
0.3165728905934717
 30
0.0
 11
0.0413943492472735
 21
0.3007994550768793
 31
0.0
  0
LINE
  5
7B
  8
CUT
 10
0.0413943492472735
 20
0.3007994550768793
 30
0.0
 11
0.0484626338377336
 21
0.2852582784849591
 31
0.0
  0
LINE
  5
7C
  8
CUT
 10
0.0484626338377336
 20
0.2852582784849591
 30
0.0
 11
0.0560573907988124
 21
0.2699674811344239
 31
0.0
  0
LINE
  5
7D
  8
CUT
 10
0.0560573907988124
 20
0.2699674811344239
 30
0.0
 11
0.0641697649836244
 21
0.2549448914109914
 31
0.0
  0
LINE
  5
7E
  8
CUT
 10
0.0641697649836244
 20
0.2549448914109914
 30
0.0
 11
0.0727902977267557
 21
0.2402080249822832
 31
0.0
  0
LINE
  5
7F
  8
CUT
 10
0.0727902977267557
 20
0.2402080249822832
 30
0.0
 11
0.0819089378726445
 21
0.2257740643753406
 31
0.0
  0
LINE
  5
80
  8
CUT
 10
0.0819089378726445
 20
0.2257740643753406
 30
0.0
 11
0.091515053494779
 21
0.2116598389425665
 31
0.0
  0
LINE
  5
81
  8
CUT
 10
0.091515053494779
 20
0.2116598389425665
 30
0.0
 11
0.1015974442920477
 21
0.1978818052394527
 31
0.0
  0
LINE
  5
82
  8
CUT
 10
0.1015974442920477
 20
0.1978818052394527
 30
0.0
 11
0.11214435464779
 21
0.1844560278369736
 31
0.0
  0
LINE
  5
83
  8
CUT
 10
0.11214435464779
 20
0.1844560278369736
 30
0.0
 11
0.1231434873363194
 21
0.1713981605910138
 31
0.0
  0
LINE
  5
84
  8
CUT
 10
0.1231434873363194
 20
0.1713981605910138
 30
0.0
 11
0.1345820178609379
 21
0.158723428390673
 31
0.0
  0
LINE
  5
85
  8
CUT
 10
0.1345820178609379
 20
0.158723428390673
 30
0.0
 11
0.1464466094067262
 21
0.1464466094067262
 31
0.0
  0
LINE
  5
86
  8
CUT
 10
0.1464466094067262
 20
0.1464466094067262
 30
0.0
 11
0.1587234283906729
 21
0.134582017860938
 31
0.0
  0
LINE
  5
87
  8
CUT
 10
0.1587234283906729
 20
0.134582017860938
 30
0.0
 11
0.1713981605910138
 21
0.1231434873363195
 31
0.0
  0
LINE
  5
88
  8
CUT
 10
0.1713981605910138
 20
0.1231434873363195
 30
0.0
 11
0.1844560278369736
 21
0.1121443546477901
 31
0.0
  0
LINE
  5
89
  8
CUT
 10
0.1844560278369736
 20
0.1121443546477901
 30
0.0
 11
0.1978818052394527
 21
0.1015974442920478
 31
0.0
  0
LINE
  5
8A
  8
CUT
 10
0.1978818052394527
 20
0.1015974442920478
 30
0.0
 11
0.2116598389425665
 21
0.091515053494779
 31
0.0
  0
LINE
  5
8B
  8
CUT
 10
0.2116598389425665
 20
0.091515053494779
 30
0.0
 11
0.2257740643753406
 21
0.0819089378726446
 31
0.0
  0
LINE
  5
8C
  8
CUT
 10
0.2257740643753406
 20
0.0819089378726446
 30
0.0
 11
0.2402080249822832
 21
0.0727902977267557
 31
0.0
  0
LINE
  5
8D
  8
CUT
 10
0.2402080249822832
 20
0.0727902977267557
 30
0.0
 11
0.2549448914109913
 21
0.0641697649836244
 31
0.0
  0
LINE
  5
8E
  8
CUT
 10
0.2549448914109913
 20
0.0641697649836244
 30
0.0
 11
0.2699674811344239
 21
0.0560573907988124
 31
0.0
  0
LINE
  5
8F
  8
CUT
 10
0.2699674811344239
 20
0.0560573907988124
 30
0.0
 11
0.285258278484959
 21
0.0484626338377337
 31
0.0
  0
LINE
  5
90
  8
CUT
 10
0.285258278484959
 20
0.0484626338377337
 30
0.0
 11
0.3007994550768792
 21
0.0413943492472735
 31
0.0
  0
LINE
  5
91
  8
CUT
 10
0.3007994550768792
 20
0.0413943492472735
 30
0.0
 11
0.3165728905934716
 21
0.0348607783310835
 31
0.0
  0
LINE
  5
92
  8
CUT
 10
0.3165728905934716
 20
0.0348607783310835
 30
0.0
 11
0.3325601939145069
 21
0.0288695389405898
 31
0.0
  0
LINE
  5
93
  8
CUT
 10
0.3325601939145069
 20
0.0288695389405898
 30
0.0
 11
0.3487427245594621
 21
0.0234276165929196
 31
0.0
  0
LINE
  5
94
  8
CUT
 10
0.3487427245594621
 20
0.0234276165929196
 30
0.0
 11
0.3651016144214879
 21
0.0185413563261003
 31
0.0
  0
LINE
  5
95
  8
CUT
 10
0.3651016144214879
 20
0.0185413563261003
 30
0.0
 11
0.3816177897667766
 21
0.0142164553010293
 31
0.0
  0
LINE
  5
96
  8
CUT
 10
0.3816177897667766
 20
0.0142164553010293
 30
0.0
 11
0.398271993473683
 21
0.0104579561588386
 31
0.0
  0
LINE
  5
97
  8
CUT
 10
0.398271993473683
 20
0.0104579561588386
 30
0.0
 11
0.4150448074856666
 21
0.0072702411414016
 31
0.0
  0
LINE
  5
98
  8
CUT
 10
0.4150448074856666
 20
0.0072702411414016
 30
0.0
 11
0.4319166754518766
 21
0.0046570269818346
 31
0.0
  0
LINE
  5
99
  8
CUT
 10
0.4319166754518766
 20
0.0046570269818346
 30
0.0
 11
0.4488679255289828
 21
0.0026213605709526
 31
0.0
  0
LINE
  5
9A
  8
CUT
 10
0.4488679255289828
 20
0.0026213605709526
 30
0.0
 11
0.4658787933176645
 21
0.0011656154047304
 31
0.0
  0
LINE
  5
9B
  8
CUT
 10
0.4658787933176645
 20
0.0011656154047304
 30
0.0
 11
0.4829294449070161
 21
0.000291488816913
 31
0.0
  0
LINE
  5
9C
  8
CUT
 10
0.4829294449070161
 20
0.000291488816913
 30
0.0
 11
0.5
 21
0.0
 31
0.0
  0
LINE
  5
9D
  8
CUT
 10
0.5
 20
0.0
 30
0.0
 11
33.50000000000001
 21
0.0
 31
0.0
  0
LINE
  5
9E
  8
CUT
 10
33.50000000000001
 20
0.0
 30
0.0
 11
33.51707055509299
 21
0.0002914888169132
 31
0.0
  0
LINE
  5
9F
  8
CUT
 10
33.51707055509299
 20
0.0002914888169132
 30
0.0
 11
33.53412120668234
 21
0.0011656154047309
 31
0.0
  0
LINE
  5
A0
  8
CUT
 10
33.53412120668234
 20
0.0011656154047309
 30
0.0
 11
33.55113207447102
 21
0.0026213605709533
 31
0.0
  0
LINE
  5
A1
  8
CUT
 10
33.55113207447102
 20
0.0026213605709533
 30
0.0
 11
33.56808332454813
 21
0.0046570269818355
 31
0.0
  0
LINE
  5
A2
  8
CUT
 10
33.56808332454813
 20
0.0046570269818355
 30
0.0
 11
33.58495519251434
 21
0.0072702411414027
 31
0.0
  0
LINE
  5
A3
  8
CUT
 10
33.58495519251434
 20
0.0072702411414027
 30
0.0
 11
33.60172800652632
 21
0.0104579561588398
 31
0.0
  0
LINE
  5
A4
  8
CUT
 10
33.60172800652632
 20
0.0104579561588398
 30
0.0
 11
33.61838221023323
 21
0.0142164553010307
 31
0.0
  0
LINE
  5
A5
  8
CUT
 10
33.61838221023323
 20
0.0142164553010307
 30
0.0
 11
33.63489838557852
 21
0.0185413563261019
 31
0.0
  0
LINE
  5
A6
  8
CUT
 10
33.63489838557852
 20
0.0185413563261019
 30
0.0
 11
33.65125727544054
 21
0.0234276165929213
 31
0.0
  0
LINE
  5
A7
  8
CUT
 10
33.65125727544054
 20
0.0234276165929213
 30
0.0
 11
33.6674398060855
 21
0.0288695389405916
 31
0.0
  0
LINE
  5
A8
  8
CUT
 10
33.6674398060855
 20
0.0288695389405916
 30
0.0
 11
33.68342710940654
 21
0.0348607783310854
 31
0.0
  0
LINE
  5
A9
  8
CUT
 10
33.68342710940654
 20
0.0348607783310854
 30
0.0
 11
33.69920054492312
 21
0.0413943492472756
 31
0.0
  0
LINE
  5
AA
  8
CUT
 10
33.69920054492312
 20
0.0413943492472756
 30
0.0
 11
33.71474172151505
 21
0.0484626338377358
 31
0.0
  0
LINE
  5
AB
  8
CUT
 10
33.71474172151505
 20
0.0484626338377358
 30
0.0
 11
33.73003251886558
 21
0.0560573907988147
 31
0.0
  0
LINE
  5
AC
  8
CUT
 10
33.73003251886558
 20
0.0560573907988147
 30
0.0
 11
33.74505510858901
 21
0.0641697649836267
 31
0.0
  0
LINE
  5
AD
  8
CUT
 10
33.74505510858901
 20
0.0641697649836267
 30
0.0
 11
33.75979197501772
 21
0.0727902977267581
 31
0.0
  0
LINE
  5
AE
  8
CUT
 10
33.75979197501772
 20
0.0727902977267581
 30
0.0
 11
33.77422593562466
 21
0.081908937872647
 31
0.0
  0
LINE
  5
AF
  8
CUT
 10
33.77422593562466
 20
0.081908937872647
 30
0.0
 11
33.78834016105744
 21
0.0915150534947815
 31
0.0
  0
LINE
  5
B0
  8
CUT
 10
33.78834016105744
 20
0.0915150534947815
 30
0.0
 11
33.80211819476055
 21
0.1015974442920502
 31
0.0
  0
LINE
  5
B1
  8
CUT
 10
33.80211819476055
 20
0.1015974442920502
 30
0.0
 11
33.81554397216303
 21
0.1121443546477926
 31
0.0
  0
LINE
  5
B2
  8
CUT
 10
33.81554397216303
 20
0.1121443546477926
 30
0.0
 11
33.82860183940899
 21
0.123143487336322
 31
0.0
  0
LINE
  5
B3
  8
CUT
 10
33.82860183940899
 20
0.123143487336322
 30
0.0
 11
33.84127657160933
 21
0.1345820178609405
 31
0.0
  0
LINE
  5
B4
  8
CUT
 10
33.84127657160933
 20
0.1345820178609405
 30
0.0
 11
33.85355339059328
 21
0.1464466094067287
 31
0.0
  0
LINE
  5
B5
  8
CUT
 10
33.85355339059328
 20
0.1464466094067287
 30
0.0
 11
33.86541798213906
 21
0.1587234283906754
 31
0.0
  0
LINE
  5
B6
  8
CUT
 10
33.86541798213906
 20
0.1587234283906754
 30
0.0
 11
33.87685651266369
 21
0.1713981605910162
 31
0.0
  0
LINE
  5
B7
  8
CUT
 10
33.87685651266369
 20
0.1713981605910162
 30
0.0
 11
33.88785564535222
 21
0.184456027836976
 31
0.0
  0
LINE
  5
B8
  8
CUT
 10
33.88785564535222
 20
0.184456027836976
 30
0.0
 11
33.89840255570795
 21
0.197881805239455
 31
0.0
  0
LINE
  5
B9
  8
CUT
 10
33.89840255570795
 20
0.197881805239455
 30
0.0
 11
33.90848494650523
 21
0.2116598389425687
 31
0.0
  0
LINE
  5
BA
  8
CUT
 10
33.90848494650523
 20
0.2116598389425687
 30
0.0
 11
33.91809106212736
 21
0.2257740643753428
 31
0.0
  0
LINE
  5
BB
  8
CUT
 10
33.91809106212736
 20
0.2257740643753428
 30
0.0
 11
33.92720970227325
 21
0.2402080249822853
 31
0.0
  0
LINE
  5
BC
  8
CUT
 10
33.92720970227325
 20
0.2402080249822853
 30
0.0
 11
33.93583023501638
 21
0.2549448914109934
 31
0.0
  0
LINE
  5
BD
  8
CUT
 10
33.93583023501638
 20
0.2549448914109934
 30
0.0
 11
33.94394260920119
 21
0.2699674811344258
 31
0.0
  0
LINE
  5
BE
  8
CUT
 10
33.94394260920119
 20
0.2699674811344258
 30
0.0
 11
33.95153736616226
 21
0.2852582784849609
 31
0.0
  0
LINE
  5
BF
  8
CUT
 10
33.95153736616226
 20
0.2852582784849609
 30
0.0
 11
33.95860565075272
 21
0.3007994550768809
 31
0.0
  0
LINE
  5
C0
  8
CUT
 10
33.95860565075272
 20
0.3007994550768809
 30
0.0
 11
33.96513922166891
 21
0.3165728905934733
 31
0.0
  0
LINE
  5
C1
  8
CUT
 10
33.96513922166891
 20
0.3165728905934733
 30
0.0
 11
33.97113046105941
 21
0.3325601939145084
 31
0.0
  0
LINE
  5
C2
  8
CUT
 10
33.97113046105941
 20
0.3325601939145084
 30
0.0
 11
33.97657238340708
 21
0.3487427245594635
 31
0.0
  0
LINE
  5
C3
  8
CUT
 10
33.97657238340708
 20
0.3487427245594635
 30
0.0
 11
33.9814586436739
 21
0.3651016144214891
 31
0.0
  0
LINE
  5
C4
  8
CUT
 10
33.9814586436739
 20
0.3651016144214891
 30
0.0
 11
33.98578354469897
 21
0.3816177897667776
 31
0.0
  0
LINE
  5
C5
  8
CUT
 10
33.98578354469897
 20
0.3816177897667776
 30
0.0
 11
33.98954204384116
 21
0.398271993473684
 31
0.0
  0
LINE
  5
C6
  8
CUT
 10
33.98954204384116
 20
0.398271993473684
 30
0.0
 11
33.99272975885859
 21
0.4150448074856674
 31
0.0
  0
LINE
  5
C7
  8
CUT
 10
33.99272975885859
 20
0.4150448074856674
 30
0.0
 11
33.99534297301816
 21
0.4319166754518773
 31
0.0
  0
LINE
  5
C8
  8
CUT
 10
33.99534297301816
 20
0.4319166754518773
 30
0.0
 11
33.99737863942904
 21
0.4488679255289832
 31
0.0
  0
LINE
  5
C9
  8
CUT
 10
33.99737863942904
 20
0.4488679255289832
 30
0.0
 11
33.99883438459527
 21
0.4658787933176649
 31
0.0
  0
LINE
  5
CA
  8
CUT
 10
33.99883438459527
 20
0.4658787933176649
 30
0.0
 11
33.99970851118309
 21
0.4829294449070162
 31
0.0
  0
LINE
  5
CB
  8
CUT
 10
33.99970851118309
 20
0.4829294449070162
 30
0.0
 11
34.0
 21
0.4999999999999999
 31
0.0
  0
LINE
  5
CC
  8
CUT
 10
34.0
 20
0.4999999999999999
 30
0.0
 11
34.0
 21
32.5
 31
0.0
  0
LINE
  5
CD
  8
CUT
 10
34.0
 20
32.5
 30
0.0
 11
33.99970851118309
 21
32.51707055509299
 31
0.0
  0
LINE
  5
CE
  8
CUT
 10
33.99970851118309
 20
32.51707055509299
 30
0.0
 11
33.99883438459527
 21
32.53412120668234
 31
0.0
  0
LINE
  5
CF
  8
CUT
 10
33.99883438459527
 20
32.53412120668234
 30
0.0
 11
33.99737863942904
 21
32.55113207447102
 31
0.0
  0
LINE
  5
D0
  8
CUT
 10
33.99737863942904
 20
32.55113207447102
 30
0.0
 11
33.99534297301817
 21
32.56808332454813
 31
0.0
  0
LINE
  5
D1
  8
CUT
 10
33.99534297301817
 20
32.56808332454813
 30
0.0
 11
33.9927297588586
 21
32.58495519251434
 31
0.0
  0
LINE
  5
D2
  8
CUT
 10
33.9927297588586
 20
32.58495519251434
 30
0.0
 11
33.98954204384116
 21
32.60172800652632
 31
0.0
  0
LINE
  5
D3
  8
CUT
 10
33.98954204384116
 20
32.60172800652632
 30
0.0
 11
33.98578354469897
 21
32.61838221023322
 31
0.0
  0
LINE
  5
D4
  8
CUT
 10
33.98578354469897
 20
32.61838221023322
 30
0.0
 11
33.9814586436739
 21
32.63489838557851
 31
0.0
  0
LINE
  5
D5
  8
CUT
 10
33.9814586436739
 20
32.63489838557851
 30
0.0
 11
33.97657238340708
 21
32.65125727544054
 31
0.0
  0
LINE
  5
D6
  8
CUT
 10
33.97657238340708
 20
32.65125727544054
 30
0.0
 11
33.97113046105941
 21
32.66743980608549
 31
0.0
  0
LINE
  5
D7
  8
CUT
 10
33.97113046105941
 20
32.66743980608549
 30
0.0
 11
33.96513922166891
 21
32.68342710940653
 31
0.0
  0
LINE
  5
D8
  8
CUT
 10
33.96513922166891
 20
32.68342710940653
 30
0.0
 11
33.95860565075272
 21
32.69920054492312
 31
0.0
  0
LINE
  5
D9
  8
CUT
 10
33.95860565075272
 20
32.69920054492312
 30
0.0
 11
33.95153736616226
 21
32.71474172151504
 31
0.0
  0
LINE
  5
DA
  8
CUT
 10
33.95153736616226
 20
32.71474172151504
 30
0.0
 11
33.94394260920119
 21
32.73003251886558
 31
0.0
  0
LINE
  5
DB
  8
CUT
 10
33.94394260920119
 20
32.73003251886558
 30
0.0
 11
33.93583023501638
 21
32.74505510858901
 31
0.0
  0
LINE
  5
DC
  8
CUT
 10
33.93583023501638
 20
32.74505510858901
 30
0.0
 11
33.92720970227325
 21
32.75979197501772
 31
0.0
  0
LINE
  5
DD
  8
CUT
 10
33.92720970227325
 20
32.75979197501772
 30
0.0
 11
33.91809106212735
 21
32.77422593562466
 31
0.0
  0
LINE
  5
DE
  8
CUT
 10
33.91809106212735
 20
32.77422593562466
 30
0.0
 11
33.90848494650522
 21
32.78834016105743
 31
0.0
  0
LINE
  5
DF
  8
CUT
 10
33.90848494650522
 20
32.78834016105743
 30
0.0
 11
33.89840255570795
 21
32.80211819476055
 31
0.0
  0
LINE
  5
E0
  8
CUT
 10
33.89840255570795
 20
32.80211819476055
 30
0.0
 11
33.88785564535221
 21
32.81554397216303
 31
0.0
  0
LINE
  5
E1
  8
CUT
 10
33.88785564535221
 20
32.81554397216303
 30
0.0
 11
33.87685651266368
 21
32.82860183940899
 31
0.0
  0
LINE
  5
E2
  8
CUT
 10
33.87685651266368
 20
32.82860183940899
 30
0.0
 11
33.86541798213906
 21
32.84127657160933
 31
0.0
  0
LINE
  5
E3
  8
CUT
 10
33.86541798213906
 20
32.84127657160933
 30
0.0
 11
33.85355339059328
 21
32.85355339059328
 31
0.0
  0
LINE
  5
E4
  8
CUT
 10
33.85355339059328
 20
32.85355339059328
 30
0.0
 11
33.84127657160933
 21
32.86541798213906
 31
0.0
  0
LINE
  5
E5
  8
CUT
 10
33.84127657160933
 20
32.86541798213906
 30
0.0
 11
33.82860183940899
 21
32.87685651266368
 31
0.0
  0
LINE
  5
E6
  8
CUT
 10
33.82860183940899
 20
32.87685651266368
 30
0.0
 11
33.81554397216303
 21
32.88785564535221
 31
0.0
  0
LINE
  5
E7
  8
CUT
 10
33.81554397216303
 20
32.88785564535221
 30
0.0
 11
33.80211819476055
 21
32.89840255570795
 31
0.0
  0
LINE
  5
E8
  8
CUT
 10
33.80211819476055
 20
32.89840255570795
 30
0.0
 11
33.78834016105743
 21
32.90848494650522
 31
0.0
  0
LINE
  5
E9
  8
CUT
 10
33.78834016105743
 20
32.90848494650522
 30
0.0
 11
33.77422593562466
 21
32.91809106212735
 31
0.0
  0
LINE
  5
EA
  8
CUT
 10
33.77422593562466
 20
32.91809106212735
 30
0.0
 11
33.75979197501772
 21
32.92720970227325
 31
0.0
  0
LINE
  5
EB
  8
CUT
 10
33.75979197501772
 20
32.92720970227325
 30
0.0
 11
33.74505510858901
 21
32.93583023501638
 31
0.0
  0
LINE
  5
EC
  8
CUT
 10
33.74505510858901
 20
32.93583023501638
 30
0.0
 11
33.73003251886558
 21
32.94394260920119
 31
0.0
  0
LINE
  5
ED
  8
CUT
 10
33.73003251886558
 20
32.94394260920119
 30
0.0
 11
33.71474172151504
 21
32.95153736616226
 31
0.0
  0
LINE
  5
EE
  8
CUT
 10
33.71474172151504
 20
32.95153736616226
 30
0.0
 11
33.69920054492312
 21
32.95860565075272
 31
0.0
  0
LINE
  5
EF
  8
CUT
 10
33.69920054492312
 20
32.95860565075272
 30
0.0
 11
33.68342710940653
 21
32.96513922166891
 31
0.0
  0
LINE
  5
F0
  8
CUT
 10
33.68342710940653
 20
32.96513922166891
 30
0.0
 11
33.66743980608549
 21
32.97113046105941
 31
0.0
  0
LINE
  5
F1
  8
CUT
 10
33.66743980608549
 20
32.97113046105941
 30
0.0
 11
33.65125727544054
 21
32.97657238340708
 31
0.0
  0
LINE
  5
F2
  8
CUT
 10
33.65125727544054
 20
32.97657238340708
 30
0.0
 11
33.63489838557851
 21
32.9814586436739
 31
0.0
  0
LINE
  5
F3
  8
CUT
 10
33.63489838557851
 20
32.9814586436739
 30
0.0
 11
33.61838221023322
 21
32.98578354469897
 31
0.0
  0
LINE
  5
F4
  8
CUT
 10
33.61838221023322
 20
32.98578354469897
 30
0.0
 11
33.60172800652632
 21
32.98954204384116
 31
0.0
  0
LINE
  5
F5
  8
CUT
 10
33.60172800652632
 20
32.98954204384116
 30
0.0
 11
33.58495519251434
 21
32.9927297588586
 31
0.0
  0
LINE
  5
F6
  8
CUT
 10
33.58495519251434
 20
32.9927297588586
 30
0.0
 11
33.56808332454813
 21
32.99534297301817
 31
0.0
  0
LINE
  5
F7
  8
CUT
 10
33.56808332454813
 20
32.99534297301817
 30
0.0
 11
33.55113207447102
 21
32.99737863942904
 31
0.0
  0
LINE
  5
F8
  8
CUT
 10
33.55113207447102
 20
32.99737863942904
 30
0.0
 11
33.53412120668234
 21
32.99883438459527
 31
0.0
  0
LINE
  5
F9
  8
CUT
 10
33.53412120668234
 20
32.99883438459527
 30
0.0
 11
33.51707055509299
 21
32.99970851118309
 31
0.0
  0
LINE
  5
FA
  8
CUT
 10
33.51707055509299
 20
32.99970851118309
 30
0.0
 11
33.5
 21
33.0
 31
0.0
  0
LINE
  5
FB
  8
CUT
 10
33.5
 20
33.0
 30
0.0
 11
0.4999999999999857
 21
33.0
 31
0.0
  0
LINE
  5
FC
  8
CUT
 10
0.4999999999999857
 20
33.0
 30
0.0
 11
0.482929444907002
 21
32.99970851118309
 31
0.0
  0
LINE
  5
FD
  8
CUT
 10
0.482929444907002
 20
32.99970851118309
 30
0.0
 11
0.4658787933176506
 21
32.99883438459527
 31
0.0
  0
LINE
  5
FE
  8
CUT
 10
0.4658787933176506
 20
32.99883438459527
 30
0.0
 11
0.4488679255289691
 21
32.99737863942904
 31
0.0
  0
LINE
  5
FF
  8
CUT
 10
0.4488679255289691
 20
32.99737863942904
 30
0.0
 11
0.4319166754518631
 21
32.99534297301817
 31
0.0
  0
LINE
  5
100
  8
CUT
 10
0.4319166754518631
 20
32.99534297301817
 30
0.0
 11
0.4150448074856533
 21
32.9927297588586
 31
0.0
  0
LINE
  5
101
  8
CUT
 10
0.4150448074856533
 20
32.9927297588586
 30
0.0
 11
0.3982719934736699
 21
32.98954204384116
 31
0.0
  0
LINE
  5
102
  8
CUT
 10
0.3982719934736699
 20
32.98954204384116
 30
0.0
 11
0.3816177897667636
 21
32.98578354469897
 31
0.0
  0
LINE
  5
103
  8
CUT
 10
0.3816177897667636
 20
32.98578354469897
 30
0.0
 11
0.3651016144214751
 21
32.9814586436739
 31
0.0
  0
LINE
  5
104
  8
CUT
 10
0.3651016144214751
 20
32.9814586436739
 30
0.0
 11
0.3487427245594495
 21
32.97657238340708
 31
0.0
  0
LINE
  5
105
  8
CUT
 10
0.3487427245594495
 20
32.97657238340708
 30
0.0
 11
0.3325601939144945
 21
32.97113046105941
 31
0.0
  0
LINE
  5
106
  8
CUT
 10
0.3325601939144945
 20
32.97113046105941
 30
0.0
 11
0.3165728905934596
 21
32.96513922166892
 31
0.0
  0
LINE
  5
107
  8
CUT
 10
0.3165728905934596
 20
32.96513922166892
 30
0.0
 11
0.3007994550768673
 21
32.95860565075273
 31
0.0
  0
LINE
  5
108
  8
CUT
 10
0.3007994550768673
 20
32.95860565075273
 30
0.0
 11
0.2852582784849473
 21
32.95153736616227
 31
0.0
  0
LINE
  5
109
  8
CUT
 10
0.2852582784849473
 20
32.95153736616227
 30
0.0
 11
0.2699674811344124
 21
32.94394260920119
 31
0.0
  0
LINE
  5
10A
  8
CUT
 10
0.2699674811344124
 20
32.94394260920119
 30
0.0
 11
0.2549448914109801
 21
32.93583023501638
 31
0.0
  0
LINE
  5
10B
  8
CUT
 10
0.2549448914109801
 20
32.93583023501638
 30
0.0
 11
0.2402080249822722
 21
32.92720970227324
 31
0.0
  0
LINE
  5
10C
  8
CUT
 10
0.2402080249822722
 20
32.92720970227324
 30
0.0
 11
0.2257740643753298
 21
32.91809106212735
 31
0.0
  0
LINE
  5
10D
  8
CUT
 10
0.2257740643753298
 20
32.91809106212735
 30
0.0
 11
0.2116598389425558
 21
32.90848494650522
 31
0.0
  0
LINE
  5
10E
  8
CUT
 10
0.2116598389425558
 20
32.90848494650522
 30
0.0
 11
0.1978818052394423
 21
32.89840255570795
 31
0.0
  0
LINE
  5
10F
  8
CUT
 10
0.1978818052394423
 20
32.89840255570795
 30
0.0
 11
0.1844560278369634
 21
32.8878556453522
 31
0.0
  0
LINE
  5
110
  8
CUT
 10
0.1844560278369634
 20
32.8878556453522
 30
0.0
 11
0.1713981605910038
 21
32.87685651266368
 31
0.0
  0
LINE
  5
111
  8
CUT
 10
0.1713981605910038
 20
32.87685651266368
 30
0.0
 11
0.1587234283906631
 21
32.86541798213906
 31
0.0
  0
LINE
  5
112
  8
CUT
 10
0.1587234283906631
 20
32.86541798213906
 30
0.0
 11
0.1464466094067166
 21
32.85355339059327
 31
0.0
  0
LINE
  5
113
  8
CUT
 10
0.1464466094067166
 20
32.85355339059327
 30
0.0
 11
0.1345820178609285
 21
32.84127657160932
 31
0.0
  0
LINE
  5
114
  8
CUT
 10
0.1345820178609285
 20
32.84127657160932
 30
0.0
 11
0.1231434873363102
 21
32.82860183940898
 31
0.0
  0
LINE
  5
115
  8
CUT
 10
0.1231434873363102
 20
32.82860183940898
 30
0.0
 11
0.1121443546477811
 21
32.81554397216302
 31
0.0
  0
LINE
  5
116
  8
CUT
 10
0.1121443546477811
 20
32.81554397216302
 30
0.0
 11
0.1015974442920388
 21
32.80211819476055
 31
0.0
  0
LINE
  5
117
  8
CUT
 10
0.1015974442920388
 20
32.80211819476055
 30
0.0
 11
0.0915150534947703
 21
32.78834016105743
 31
0.0
  0
LINE
  5
118
  8
CUT
 10
0.0915150534947703
 20
32.78834016105743
 30
0.0
 11
0.081908937872636
 21
32.77422593562466
 31
0.0
  0
LINE
  5
119
  8
CUT
 10
0.081908937872636
 20
32.77422593562466
 30
0.0
 11
0.0727902977267473
 21
32.75979197501771
 31
0.0
  0
LINE
  5
11A
  8
CUT
 10
0.0727902977267473
 20
32.75979197501771
 30
0.0
 11
0.0641697649836162
 21
32.74505510858901
 31
0.0
  0
LINE
  5
11B
  8
CUT
 10
0.0641697649836162
 20
32.74505510858901
 30
0.0
 11
0.0560573907988043
 21
32.73003251886557
 31
0.0
  0
LINE
  5
11C
  8
CUT
 10
0.0560573907988043
 20
32.73003251886557
 30
0.0
 11
0.0484626338377257
 21
32.71474172151504
 31
0.0
  0
LINE
  5
11D
  8
CUT
 10
0.0484626338377257
 20
32.71474172151504
 30
0.0
 11
0.0413943492472656
 21
32.69920054492312
 31
0.0
  0
LINE
  5
11E
  8
CUT
 10
0.0413943492472656
 20
32.69920054492312
 30
0.0
 11
0.0348607783310757
 21
32.68342710940652
 31
0.0
  0
LINE
  5
11F
  8
CUT
 10
0.0348607783310757
 20
32.68342710940652
 30
0.0
 11
0.0288695389405821
 21
32.66743980608549
 31
0.0
  0
LINE
  5
120
  8
CUT
 10
0.0288695389405821
 20
32.66743980608549
 30
0.0
 11
0.023427616592912
 21
32.65125727544054
 31
0.0
  0
LINE
  5
121
  8
CUT
 10
0.023427616592912
 20
32.65125727544054
 30
0.0
 11
0.0185413563260929
 21
32.63489838557851
 31
0.0
  0
LINE
  5
122
  8
CUT
 10
0.0185413563260929
 20
32.63489838557851
 30
0.0
 11
0.0142164553010218
 21
32.61838221023322
 31
0.0
  0
LINE
  5
123
  8
CUT
 10
0.0142164553010218
 20
32.61838221023322
 30
0.0
 11
0.0104579561588313
 21
32.60172800652632
 31
0.0
  0
LINE
  5
124
  8
CUT
 10
0.0104579561588313
 20
32.60172800652632
 30
0.0
 11
0.0072702411413943
 21
32.58495519251434
 31
0.0
  0
LINE
  5
125
  8
CUT
 10
0.0072702411413943
 20
32.58495519251434
 30
0.0
 11
0.0046570269818274
 21
32.56808332454812
 31
0.0
  0
LINE
  5
126
  8
CUT
 10
0.0046570269818274
 20
32.56808332454812
 30
0.0
 11
0.0026213605709454
 21
32.55113207447101
 31
0.0
  0
LINE
  5
127
  8
CUT
 10
0.0026213605709454
 20
32.55113207447101
 30
0.0
 11
0.0011656154047233
 21
32.53412120668234
 31
0.0
  0
LINE
  5
128
  8
CUT
 10
0.0011656154047233
 20
32.53412120668234
 30
0.0
 11
0.0002914888169059
 21
32.51707055509299
 31
0.0
  0
LINE
  5
129
  8
CUT
 10
0.0002914888169059
 20
32.51707055509299
 30
0.0
 11
-0.0000000000000071
 21
32.5
 31
0.0
  0
LINE
  5
12A
  8
CUT
 10
-0.0000000000000071
 20
32.5
 30
0.0
 11
0.0
 21
0.5
 31
0.0
  0
LINE
  5
12B
  8
CUT
 10
17.0
 20
15.0
 30
0.0
 11
16.82741930515146
 21
15.00297929724465
 31
0.0
  0
LINE
  5
12C
  8
CUT
 10
16.82741930515146
 20
15.00297929724465
 30
0.0
 11
16.65504427797837
 21
15.01191363849376
 31
0.0
  0
LINE
  5
12D
  8
CUT
 10
16.65504427797837
 20
15.01191363849376
 30
0.0
 11
16.48308034105815
 21
15.02679237652404
 31
0.0
  0
LINE
  5
12E
  8
CUT
 10
16.48308034105815
 20
15.02679237652404
 30
0.0
 11
16.31173242706416
 21
15.04759778006218
 31
0.0
  0
LINE
  5
12F
  8
CUT
 10
16.31173242706416
 20
15.04759778006218
 30
0.0
 11
16.14120473454362
 21
15.07430505491563
 31
0.0
  0
LINE
  5
130
  8
CUT
 10
16.14120473454362
 20
15.07430505491563
 30
0.0
 11
15.97170048457032
 21
15.10688237352022
 31
0.0
  0
LINE
  5
131
  8
CUT
 10
15.97170048457032
 20
15.10688237352022
 30
0.0
 11
15.80342167856221
 21
15.14529091286974
 31
0.0
  0
LINE
  5
132
  8
CUT
 10
15.80342167856221
 20
15.14529091286974
 30
0.0
 11
15.63656885755253
 21
15.189484900782
 31
0.0
  0
LINE
  5
133
  8
CUT
 10
15.63656885755253
 20
15.189484900782
 30
0.0
 11
15.47134086320123
 21
15.23941167044643
 31
0.0
  0
LINE
  5
134
  8
CUT
 10
15.47134086320123
 20
15.23941167044643
 30
0.0
 11
15.30793460083165
 21
15.29501172318812
 31
0.0
  0
LINE
  5
135
  8
CUT
 10
15.30793460083165
 20
15.29501172318812
 30
0.0
 11
15.14654480477466
 21
15.35621879937349
 31
0.0
  0
LINE
  5
136
  8
CUT
 10
15.14654480477466
 20
15.35621879937349
 30
0.0
 11
14.98736380630016
 21
15.42295995737317
 31
0.0
  0
LINE
  5
137
  8
CUT
 10
14.98736380630016
 20
15.42295995737317
 30
0.0
 11
14.83058130441221
 21
15.4951556604879
 31
0.0
  0
LINE
  5
138
  8
CUT
 10
14.83058130441221
 20
15.4951556604879
 30
0.0
 11
14.67638413978116
 21
15.57271987173395
 31
0.0
  0
LINE
  5
139
  8
CUT
 10
14.67638413978116
 20
15.57271987173395
 30
0.0
 11
14.52495607208209
 21
15.65556015637497
 31
0.0
  0
LINE
  5
13A
  8
CUT
 10
14.52495607208209
 20
15.65556015637497
 30
0.0
 11
14.37647756100496
 21
15.74357779207824
 31
0.0
  0
LINE
  5
13B
  8
CUT
 10
14.37647756100496
 20
15.74357779207824
 30
0.0
 11
14.23112555119733
 21
15.83666788656397
 31
0.0
  0
LINE
  5
13C
  8
CUT
 10
14.23112555119733
 20
15.83666788656397
 30
0.0
 11
14.08907326139615
 21
15.93471950260734
 31
0.0
  0
LINE
  5
13D
  8
CUT
 10
14.08907326139615
 20
15.93471950260734
 30
0.0
 11
13.95048997799963
 21
16.03761579024455
 31
0.0
  0
LINE
  5
13E
  8
CUT
 10
13.95048997799963
 20
16.03761579024455
 30
0.0
 11
13.81554085332555
 21
16.1452341260251
 31
0.0
  0
LINE
  5
13F
  8
CUT
 10
13.81554085332555
 20
16.1452341260251
 30
0.0
 11
13.68438670879602
 21
16.25744625914449
 31
0.0
  0
LINE
  5
140
  8
CUT
 10
13.68438670879602
 20
16.25744625914449
 30
0.0
 11
13.55718384328361
 21
16.37411846428312
 31
0.0
  0
LINE
  5
141
  8
CUT
 10
13.55718384328361
 20
16.37411846428312
 30
0.0
 11
13.43408384684702
 21
16.49511170096925
 31
0.0
  0
LINE
  5
142
  8
CUT
 10
13.43408384684702
 20
16.49511170096925
 30
0.0
 11
13.31523342007831
 21
16.62028177927623
 31
0.0
  0
LINE
  5
143
  8
CUT
 10
13.31523342007831
 20
16.62028177927623
 30
0.0
 11
13.20077419927711
 21
16.74947953165628
 31
0.0
  0
LINE
  5
144
  8
CUT
 10
13.20077419927711
 20
16.74947953165628
 30
0.0
 11
13.09084258765985
 21
16.88255099070633
 31
0.0
  0
LINE
  5
145
  8
CUT
 10
13.09084258765985
 20
16.88255099070633
 30
0.0
 11
12.98556959280559
 21
17.01933757265387
 31
0.0
  0
LINE
  5
146
  8
CUT
 10
12.98556959280559
 20
17.01933757265387
 30
0.0
 11
12.88508067053172
 21
17.15967626634422
 31
0.0
  0
LINE
  5
147
  8
CUT
 10
12.88508067053172
 20
17.15967626634422
 30
0.0
 11
12.78949557538594
 21
17.30339982750401
 31
0.0
  0
LINE
  5
148
  8
CUT
 10
12.78949557538594
 20
17.30339982750401
 30
0.0
 11
12.6989282179325
 21
17.45033697804932
 31
0.0
  0
LINE
  5
149
  8
CUT
 10
12.6989282179325
 20
17.45033697804932
 30
0.0
 11
12.61348652900279
 21
17.60031261020107
 31
0.0
  0
LINE
  5
14A
  8
CUT
 10
12.61348652900279
 20
17.60031261020107
 30
0.0
 11
12.53327233107218
 21
17.75314799516419
 31
0.0
  0
LINE
  5
14B
  8
CUT
 10
12.53327233107218
 20
17.75314799516419
 30
0.0
 11
12.45838121691623
 21
17.90866099612218
 31
0.0
  0
LINE
  5
14C
  8
CUT
 10
12.45838121691623
 20
17.90866099612218
 30
0.0
 11
12.38890243569095
 21
18.06666628529291
 31
0.0
  0
LINE
  5
14D
  8
CUT
 10
12.38890243569095
 20
18.06666628529291
 30
0.0
 11
12.32491878657293
 21
18.22697556478732
 31
0.0
  0
LINE
  5
14E
  8
CUT
 10
12.32491878657293
 20
18.22697556478732
 30
0.0
 11
12.26650652008597
 21
18.38939779100755
 31
0.0
  0
LINE
  5
14F
  8
CUT
 10
12.26650652008597
 20
18.38939779100755
 30
0.0
 11
12.21373524723192
 21
18.55373940231716
 31
0.0
  0
LINE
  5
150
  8
CUT
 10
12.21373524723192
 20
18.55373940231716
 30
0.0
 11
12.1666678565339
 21
18.71980454971226
 31
0.0
  0
LINE
  5
151
  8
CUT
 10
12.1666678565339
 20
18.71980454971226
 30
0.0
 11
12.12536043909088
 21
18.88739533021843
 31
0.0
  0
LINE
  5
152
  8
CUT
 10
12.12536043909088
 20
18.88739533021843
 30
0.0
 11
12.08986222173285
 21
19.05631202273542
 31
0.0
  0
LINE
  5
153
  8
CUT
 10
12.08986222173285
 20
19.05631202273542
 30
0.0
 11
12.06021550835627
 21
19.22635332604859
 31
0.0
  0
LINE
  5
154
  8
CUT
 10
12.06021550835627
 20
19.22635332604859
 30
0.0
 11
12.03645562950973
 21
19.39731659872339
 31
0.0
  0
LINE
  5
155
  8
CUT
 10
12.03645562950973
 20
19.39731659872339
 30
0.0
 11
12.01861090028987
 21
19.5689981005969
 31
0.0
  0
LINE
  5
156
  8
CUT
 10
12.01861090028987
 20
19.5689981005969
 30
0.0
 11
12.00670258659772
 21
19.74119323557895
 31
0.0
  0
LINE
  5
157
  8
CUT
 10
12.00670258659772
 20
19.74119323557895
 30
0.0
 11
12.00074487979575
 21
19.91369679547306
 31
0.0
  0
LINE
  5
158
  8
CUT
 10
12.00074487979575
 20
19.91369679547306
 30
0.0
 11
12.00074487979575
 21
20.08630320452695
 31
0.0
  0
LINE
  5
159
  8
CUT
 10
12.00074487979575
 20
20.08630320452695
 30
0.0
 11
12.00670258659772
 21
20.25880676442105
 31
0.0
  0
LINE
  5
15A
  8
CUT
 10
12.00670258659772
 20
20.25880676442105
 30
0.0
 11
12.01861090028987
 21
20.4310018994031
 31
0.0
  0
LINE
  5
15B
  8
CUT
 10
12.01861090028987
 20
20.4310018994031
 30
0.0
 11
12.03645562950973
 21
20.60268340127662
 31
0.0
  0
LINE
  5
15C
  8
CUT
 10
12.03645562950973
 20
20.60268340127662
 30
0.0
 11
12.06021550835627
 21
20.77364667395141
 31
0.0
  0
LINE
  5
15D
  8
CUT
 10
12.06021550835627
 20
20.77364667395141
 30
0.0
 11
12.08986222173285
 21
20.94368797726458
 31
0.0
  0
LINE
  5
15E
  8
CUT
 10
12.08986222173285
 20
20.94368797726458
 30
0.0
 11
12.12536043909088
 21
21.11260466978158
 31
0.0
  0
LINE
  5
15F
  8
CUT
 10
12.12536043909088
 20
21.11260466978158
 30
0.0
 11
12.1666678565339
 21
21.28019545028774
 31
0.0
  0
LINE
  5
160
  8
CUT
 10
12.1666678565339
 20
21.28019545028774
 30
0.0
 11
12.21373524723192
 21
21.44626059768284
 31
0.0
  0
LINE
  5
161
  8
CUT
 10
12.21373524723192
 20
21.44626059768284
 30
0.0
 11
12.26650652008597
 21
21.61060220899245
 31
0.0
  0
LINE
  5
162
  8
CUT
 10
12.26650652008597
 20
21.61060220899245
 30
0.0
 11
12.32491878657293
 21
21.77302443521268
 31
0.0
  0
LINE
  5
163
  8
CUT
 10
12.32491878657293
 20
21.77302443521268
 30
0.0
 11
12.38890243569095
 21
21.93333371470709
 31
0.0
  0
LINE
  5
164
  8
CUT
 10
12.38890243569095
 20
21.93333371470709
 30
0.0
 11
12.45838121691623
 21
22.09133900387783
 31
0.0
  0
LINE
  5
165
  8
CUT
 10
12.45838121691623
 20
22.09133900387783
 30
0.0
 11
12.53327233107218
 21
22.24685200483581
 31
0.0
  0
LINE
  5
166
  8
CUT
 10
12.53327233107218
 20
22.24685200483581
 30
0.0
 11
12.61348652900279
 21
22.39968738979893
 31
0.0
  0
LINE
  5
167
  8
CUT
 10
12.61348652900279
 20
22.39968738979893
 30
0.0
 11
12.6989282179325
 21
22.54966302195068
 31
0.0
  0
LINE
  5
168
  8
CUT
 10
12.6989282179325
 20
22.54966302195068
 30
0.0
 11
12.78949557538594
 21
22.696600172496
 31
0.0
  0
LINE
  5
169
  8
CUT
 10
12.78949557538594
 20
22.696600172496
 30
0.0
 11
12.88508067053172
 21
22.84032373365578
 31
0.0
  0
LINE
  5
16A
  8
CUT
 10
12.88508067053172
 20
22.84032373365578
 30
0.0
 11
12.98556959280559
 21
22.98066242734613
 31
0.0
  0
LINE
  5
16B
  8
CUT
 10
12.98556959280559
 20
22.98066242734613
 30
0.0
 11
13.09084258765985
 21
23.11744900929367
 31
0.0
  0
LINE
  5
16C
  8
CUT
 10
13.09084258765985
 20
23.11744900929367
 30
0.0
 11
13.20077419927711
 21
23.25052046834372
 31
0.0
  0
LINE
  5
16D
  8
CUT
 10
13.20077419927711
 20
23.25052046834372
 30
0.0
 11
13.31523342007832
 21
23.37971822072377
 31
0.0
  0
LINE
  5
16E
  8
CUT
 10
13.31523342007832
 20
23.37971822072377
 30
0.0
 11
13.43408384684702
 21
23.50488829903075
 31
0.0
  0
LINE
  5
16F
  8
CUT
 10
13.43408384684702
 20
23.50488829903075
 30
0.0
 11
13.55718384328362
 21
23.62588153571688
 31
0.0
  0
LINE
  5
170
  8
CUT
 10
13.55718384328362
 20
23.62588153571688
 30
0.0
 11
13.68438670879602
 21
23.74255374085551
 31
0.0
  0
LINE
  5
171
  8
CUT
 10
13.68438670879602
 20
23.74255374085551
 30
0.0
 11
13.81554085332555
 21
23.8547658739749
 31
0.0
  0
LINE
  5
172
  8
CUT
 10
13.81554085332555
 20
23.8547658739749
 30
0.0
 11
13.95048997799964
 21
23.96238420975545
 31
0.0
  0
LINE
  5
173
  8
CUT
 10
13.95048997799964
 20
23.96238420975545
 30
0.0
 11
14.08907326139615
 21
24.06528049739266
 31
0.0
  0
LINE
  5
174
  8
CUT
 10
14.08907326139615
 20
24.06528049739266
 30
0.0
 11
14.23112555119734
 21
24.16333211343603
 31
0.0
  0
LINE
  5
175
  8
CUT
 10
14.23112555119734
 20
24.16333211343603
 30
0.0
 11
14.37647756100496
 21
24.25642220792176
 31
0.0
  0
LINE
  5
176
  8
CUT
 10
14.37647756100496
 20
24.25642220792176
 30
0.0
 11
14.52495607208209
 21
24.34443984362503
 31
0.0
  0
LINE
  5
177
  8
CUT
 10
14.52495607208209
 20
24.34443984362503
 30
0.0
 11
14.67638413978116
 21
24.42728012826605
 31
0.0
  0
LINE
  5
178
  8
CUT
 10
14.67638413978116
 20
24.42728012826605
 30
0.0
 11
14.83058130441221
 21
24.5048443395121
 31
0.0
  0
LINE
  5
179
  8
CUT
 10
14.83058130441221
 20
24.5048443395121
 30
0.0
 11
14.98736380630016
 21
24.57704004262683
 31
0.0
  0
LINE
  5
17A
  8
CUT
 10
14.98736380630016
 20
24.57704004262683
 30
0.0
 11
15.14654480477466
 21
24.64378120062651
 31
0.0
  0
LINE
  5
17B
  8
CUT
 10
15.14654480477466
 20
24.64378120062651
 30
0.0
 11
15.30793460083165
 21
24.70498827681188
 31
0.0
  0
LINE
  5
17C
  8
CUT
 10
15.30793460083165
 20
24.70498827681188
 30
0.0
 11
15.47134086320124
 21
24.76058832955357
 31
0.0
  0
LINE
  5
17D
  8
CUT
 10
15.47134086320124
 20
24.76058832955357
 30
0.0
 11
15.63656885755253
 21
24.810515099218
 31
0.0
  0
LINE
  5
17E
  8
CUT
 10
15.63656885755253
 20
24.810515099218
 30
0.0
 11
15.80342167856221
 21
24.85470908713026
 31
0.0
  0
LINE
  5
17F
  8
CUT
 10
15.80342167856221
 20
24.85470908713026
 30
0.0
 11
15.97170048457032
 21
24.89311762647978
 31
0.0
  0
LINE
  5
180
  8
CUT
 10
15.97170048457032
 20
24.89311762647978
 30
0.0
 11
16.14120473454362
 21
24.92569494508437
 31
0.0
  0
LINE
  5
181
  8
CUT
 10
16.14120473454362
 20
24.92569494508437
 30
0.0
 11
16.31173242706416
 21
24.95240221993782
 31
0.0
  0
LINE
  5
182
  8
CUT
 10
16.31173242706416
 20
24.95240221993782
 30
0.0
 11
16.48308034105815
 21
24.97320762347596
 31
0.0
  0
LINE
  5
183
  8
CUT
 10
16.48308034105815
 20
24.97320762347596
 30
0.0
 11
16.65504427797838
 21
24.98808636150624
 31
0.0
  0
LINE
  5
184
  8
CUT
 10
16.65504427797838
 20
24.98808636150624
 30
0.0
 11
16.82741930515146
 21
24.99702070275535
 31
0.0
  0
LINE
  5
185
  8
CUT
 10
16.82741930515146
 20
24.99702070275535
 30
0.0
 11
17.0
 21
25.0
 31
0.0
  0
LINE
  5
186
  8
CUT
 10
17.0
 20
25.0
 30
0.0
 11
21.0
 21
25.0
 31
0.0
  0
LINE
  5
187
  8
CUT
 10
21.0
 20
25.0
 30
0.0
 11
21.17258069484854
 21
24.99702070275535
 31
0.0
  0
LINE
  5
188
  8
CUT
 10
21.17258069484854
 20
24.99702070275535
 30
0.0
 11
21.34495572202162
 21
24.98808636150624
 31
0.0
  0
LINE
  5
189
  8
CUT
 10
21.34495572202162
 20
24.98808636150624
 30
0.0
 11
21.51691965894185
 21
24.97320762347596
 31
0.0
  0
LINE
  5
18A
  8
CUT
 10
21.51691965894185
 20
24.97320762347596
 30
0.0
 11
21.68826757293584
 21
24.95240221993782
 31
0.0
  0
LINE
  5
18B
  8
CUT
 10
21.68826757293584
 20
24.95240221993782
 30
0.0
 11
21.85879526545638
 21
24.92569494508437
 31
0.0
  0
LINE
  5
18C
  8
CUT
 10
21.85879526545638
 20
24.92569494508437
 30
0.0
 11
22.02829951542968
 21
24.89311762647977
 31
0.0
  0
LINE
  5
18D
  8
CUT
 10
22.02829951542968
 20
24.89311762647977
 30
0.0
 11
22.19657832143779
 21
24.85470908713026
 31
0.0
  0
LINE
  5
18E
  8
CUT
 10
22.19657832143779
 20
24.85470908713026
 30
0.0
 11
22.36343114244747
 21
24.810515099218
 31
0.0
  0
LINE
  5
18F
  8
CUT
 10
22.36343114244747
 20
24.810515099218
 30
0.0
 11
22.52865913679877
 21
24.76058832955357
 31
0.0
  0
LINE
  5
190
  8
CUT
 10
22.52865913679877
 20
24.76058832955357
 30
0.0
 11
22.69206539916835
 21
24.70498827681188
 31
0.0
  0
LINE
  5
191
  8
CUT
 10
22.69206539916835
 20
24.70498827681188
 30
0.0
 11
22.85345519522534
 21
24.64378120062651
 31
0.0
  0
LINE
  5
192
  8
CUT
 10
22.85345519522534
 20
24.64378120062651
 30
0.0
 11
23.01263619369984
 21
24.57704004262683
 31
0.0
  0
LINE
  5
193
  8
CUT
 10
23.01263619369984
 20
24.57704004262683
 30
0.0
 11
23.16941869558779
 21
24.5048443395121
 31
0.0
  0
LINE
  5
194
  8
CUT
 10
23.16941869558779
 20
24.5048443395121
 30
0.0
 11
23.32361586021884
 21
24.42728012826605
 31
0.0
  0
LINE
  5
195
  8
CUT
 10
23.32361586021884
 20
24.42728012826605
 30
0.0
 11
23.47504392791791
 21
24.34443984362503
 31
0.0
  0
LINE
  5
196
  8
CUT
 10
23.47504392791791
 20
24.34443984362503
 30
0.0
 11
23.62352243899504
 21
24.25642220792176
 31
0.0
  0
LINE
  5
197
  8
CUT
 10
23.62352243899504
 20
24.25642220792176
 30
0.0
 11
23.76887444880267
 21
24.16333211343603
 31
0.0
  0
LINE
  5
198
  8
CUT
 10
23.76887444880267
 20
24.16333211343603
 30
0.0
 11
23.91092673860386
 21
24.06528049739266
 31
0.0
  0
LINE
  5
199
  8
CUT
 10
23.91092673860386
 20
24.06528049739266
 30
0.0
 11
24.04951002200036
 21
23.96238420975545
 31
0.0
  0
LINE
  5
19A
  8
CUT
 10
24.04951002200036
 20
23.96238420975545
 30
0.0
 11
24.18445914667445
 21
23.8547658739749
 31
0.0
  0
LINE
  5
19B
  8
CUT
 10
24.18445914667445
 20
23.8547658739749
 30
0.0
 11
24.31561329120398
 21
23.74255374085551
 31
0.0
  0
LINE
  5
19C
  8
CUT
 10
24.31561329120398
 20
23.74255374085551
 30
0.0
 11
24.44281615671639
 21
23.62588153571688
 31
0.0
  0
LINE
  5
19D
  8
CUT
 10
24.44281615671639
 20
23.62588153571688
 30
0.0
 11
24.56591615315298
 21
23.50488829903075
 31
0.0
  0
LINE
  5
19E
  8
CUT
 10
24.56591615315298
 20
23.50488829903075
 30
0.0
 11
24.68476657992169
 21
23.37971822072377
 31
0.0
  0
LINE
  5
19F
  8
CUT
 10
24.68476657992169
 20
23.37971822072377
 30
0.0
 11
24.79922580072289
 21
23.25052046834372
 31
0.0
  0
LINE
  5
1A0
  8
CUT
 10
24.79922580072289
 20
23.25052046834372
 30
0.0
 11
24.90915741234015
 21
23.11744900929367
 31
0.0
  0
LINE
  5
1A1
  8
CUT
 10
24.90915741234015
 20
23.11744900929367
 30
0.0
 11
25.01443040719441
 21
22.98066242734613
 31
0.0
  0
LINE
  5
1A2
  8
CUT
 10
25.01443040719441
 20
22.98066242734613
 30
0.0
 11
25.11491932946828
 21
22.84032373365578
 31
0.0
  0
LINE
  5
1A3
  8
CUT
 10
25.11491932946828
 20
22.84032373365578
 30
0.0
 11
25.21050442461406
 21
22.69660017249599
 31
0.0
  0
LINE
  5
1A4
  8
CUT
 10
25.21050442461406
 20
22.69660017249599
 30
0.0
 11
25.3010717820675
 21
22.54966302195068
 31
0.0
  0
LINE
  5
1A5
  8
CUT
 10
25.3010717820675
 20
22.54966302195068
 30
0.0
 11
25.38651347099721
 21
22.39968738979893
 31
0.0
  0
LINE
  5
1A6
  8
CUT
 10
25.38651347099721
 20
22.39968738979893
 30
0.0
 11
25.46672766892782
 21
22.24685200483581
 31
0.0
  0
LINE
  5
1A7
  8
CUT
 10
25.46672766892782
 20
22.24685200483581
 30
0.0
 11
25.54161878308377
 21
22.09133900387782
 31
0.0
  0
LINE
  5
1A8
  8
CUT
 10
25.54161878308377
 20
22.09133900387782
 30
0.0
 11
25.61109756430905
 21
21.93333371470709
 31
0.0
  0
LINE
  5
1A9
  8
CUT
 10
25.61109756430905
 20
21.93333371470709
 30
0.0
 11
25.67508121342707
 21
21.77302443521268
 31
0.0
  0
LINE
  5
1AA
  8
CUT
 10
25.67508121342707
 20
21.77302443521268
 30
0.0
 11
25.73349347991403
 21
21.61060220899245
 31
0.0
  0
LINE
  5
1AB
  8
CUT
 10
25.73349347991403
 20
21.61060220899245
 30
0.0
 11
25.78626475276808
 21
21.44626059768284
 31
0.0
  0
LINE
  5
1AC
  8
CUT
 10
25.78626475276808
 20
21.44626059768284
 30
0.0
 11
25.8333321434661
 21
21.28019545028774
 31
0.0
  0
LINE
  5
1AD
  8
CUT
 10
25.8333321434661
 20
21.28019545028774
 30
0.0
 11
25.87463956090912
 21
21.11260466978157
 31
0.0
  0
LINE
  5
1AE
  8
CUT
 10
25.87463956090912
 20
21.11260466978157
 30
0.0
 11
25.91013777826715
 21
20.94368797726458
 31
0.0
  0
LINE
  5
1AF
  8
CUT
 10
25.91013777826715
 20
20.94368797726458
 30
0.0
 11
25.93978449164373
 21
20.7736466739514
 31
0.0
  0
LINE
  5
1B0
  8
CUT
 10
25.93978449164373
 20
20.7736466739514
 30
0.0
 11
25.96354437049027
 21
20.60268340127661
 31
0.0
  0
LINE
  5
1B1
  8
CUT
 10
25.96354437049027
 20
20.60268340127661
 30
0.0
 11
25.98138909971013
 21
20.4310018994031
 31
0.0
  0
LINE
  5
1B2
  8
CUT
 10
25.98138909971013
 20
20.4310018994031
 30
0.0
 11
25.99329741340228
 21
20.25880676442105
 31
0.0
  0
LINE
  5
1B3
  8
CUT
 10
25.99329741340228
 20
20.25880676442105
 30
0.0
 11
25.99925512020425
 21
20.08630320452694
 31
0.0
  0
LINE
  5
1B4
  8
CUT
 10
25.99925512020425
 20
20.08630320452694
 30
0.0
 11
25.99925512020425
 21
19.91369679547306
 31
0.0
  0
LINE
  5
1B5
  8
CUT
 10
25.99925512020425
 20
19.91369679547306
 30
0.0
 11
25.99329741340228
 21
19.74119323557895
 31
0.0
  0
LINE
  5
1B6
  8
CUT
 10
25.99329741340228
 20
19.74119323557895
 30
0.0
 11
25.98138909971013
 21
19.5689981005969
 31
0.0
  0
LINE
  5
1B7
  8
CUT
 10
25.98138909971013
 20
19.5689981005969
 30
0.0
 11
25.96354437049027
 21
19.39731659872338
 31
0.0
  0
LINE
  5
1B8
  8
CUT
 10
25.96354437049027
 20
19.39731659872338
 30
0.0
 11
25.93978449164373
 21
19.22635332604859
 31
0.0
  0
LINE
  5
1B9
  8
CUT
 10
25.93978449164373
 20
19.22635332604859
 30
0.0
 11
25.91013777826715
 21
19.05631202273542
 31
0.0
  0
LINE
  5
1BA
  8
CUT
 10
25.91013777826715
 20
19.05631202273542
 30
0.0
 11
25.87463956090912
 21
18.88739533021843
 31
0.0
  0
LINE
  5
1BB
  8
CUT
 10
25.87463956090912
 20
18.88739533021843
 30
0.0
 11
25.8333321434661
 21
18.71980454971226
 31
0.0
  0
LINE
  5
1BC
  8
CUT
 10
25.8333321434661
 20
18.71980454971226
 30
0.0
 11
25.78626475276808
 21
18.55373940231716
 31
0.0
  0
LINE
  5
1BD
  8
CUT
 10
25.78626475276808
 20
18.55373940231716
 30
0.0
 11
25.73349347991403
 21
18.38939779100755
 31
0.0
  0
LINE
  5
1BE
  8
CUT
 10
25.73349347991403
 20
18.38939779100755
 30
0.0
 11
25.67508121342707
 21
18.22697556478732
 31
0.0
  0
LINE
  5
1BF
  8
CUT
 10
25.67508121342707
 20
18.22697556478732
 30
0.0
 11
25.61109756430905
 21
18.06666628529291
 31
0.0
  0
LINE
  5
1C0
  8
CUT
 10
25.61109756430905
 20
18.06666628529291
 30
0.0
 11
25.54161878308377
 21
17.90866099612217
 31
0.0
  0
LINE
  5
1C1
  8
CUT
 10
25.54161878308377
 20
17.90866099612217
 30
0.0
 11
25.46672766892782
 21
17.75314799516419
 31
0.0
  0
LINE
  5
1C2
  8
CUT
 10
25.46672766892782
 20
17.75314799516419
 30
0.0
 11
25.38651347099721
 21
17.60031261020107
 31
0.0
  0
LINE
  5
1C3
  8
CUT
 10
25.38651347099721
 20
17.60031261020107
 30
0.0
 11
25.3010717820675
 21
17.45033697804932
 31
0.0
  0
LINE
  5
1C4
  8
CUT
 10
25.3010717820675
 20
17.45033697804932
 30
0.0
 11
25.21050442461406
 21
17.30339982750401
 31
0.0
  0
LINE
  5
1C5
  8
CUT
 10
25.21050442461406
 20
17.30339982750401
 30
0.0
 11
25.11491932946828
 21
17.15967626634422
 31
0.0
  0
LINE
  5
1C6
  8
CUT
 10
25.11491932946828
 20
17.15967626634422
 30
0.0
 11
25.01443040719441
 21
17.01933757265387
 31
0.0
  0
LINE
  5
1C7
  8
CUT
 10
25.01443040719441
 20
17.01933757265387
 30
0.0
 11
24.90915741234015
 21
16.88255099070633
 31
0.0
  0
LINE
  5
1C8
  8
CUT
 10
24.90915741234015
 20
16.88255099070633
 30
0.0
 11
24.79922580072289
 21
16.74947953165628
 31
0.0
  0
LINE
  5
1C9
  8
CUT
 10
24.79922580072289
 20
16.74947953165628
 30
0.0
 11
24.68476657992169
 21
16.62028177927623
 31
0.0
  0
LINE
  5
1CA
  8
CUT
 10
24.68476657992169
 20
16.62028177927623
 30
0.0
 11
24.56591615315298
 21
16.49511170096925
 31
0.0
  0
LINE
  5
1CB
  8
CUT
 10
24.56591615315298
 20
16.49511170096925
 30
0.0
 11
24.44281615671639
 21
16.37411846428312
 31
0.0
  0
LINE
  5
1CC
  8
CUT
 10
24.44281615671639
 20
16.37411846428312
 30
0.0
 11
24.31561329120398
 21
16.25744625914449
 31
0.0
  0
LINE
  5
1CD
  8
CUT
 10
24.31561329120398
 20
16.25744625914449
 30
0.0
 11
24.18445914667445
 21
16.1452341260251
 31
0.0
  0
LINE
  5
1CE
  8
CUT
 10
24.18445914667445
 20
16.1452341260251
 30
0.0
 11
24.04951002200036
 21
16.03761579024455
 31
0.0
  0
LINE
  5
1CF
  8
CUT
 10
24.04951002200036
 20
16.03761579024455
 30
0.0
 11
23.91092673860385
 21
15.93471950260734
 31
0.0
  0
LINE
  5
1D0
  8
CUT
 10
23.91092673860385
 20
15.93471950260734
 30
0.0
 11
23.76887444880266
 21
15.83666788656397
 31
0.0
  0
LINE
  5
1D1
  8
CUT
 10
23.76887444880266
 20
15.83666788656397
 30
0.0
 11
23.62352243899504
 21
15.74357779207824
 31
0.0
  0
LINE
  5
1D2
  8
CUT
 10
23.62352243899504
 20
15.74357779207824
 30
0.0
 11
23.47504392791791
 21
15.65556015637497
 31
0.0
  0
LINE
  5
1D3
  8
CUT
 10
23.47504392791791
 20
15.65556015637497
 30
0.0
 11
23.32361586021884
 21
15.57271987173395
 31
0.0
  0
LINE
  5
1D4
  8
CUT
 10
23.32361586021884
 20
15.57271987173395
 30
0.0
 11
23.16941869558779
 21
15.4951556604879
 31
0.0
  0
LINE
  5
1D5
  8
CUT
 10
23.16941869558779
 20
15.4951556604879
 30
0.0
 11
23.01263619369984
 21
15.42295995737317
 31
0.0
  0
LINE
  5
1D6
  8
CUT
 10
23.01263619369984
 20
15.42295995737317
 30
0.0
 11
22.85345519522534
 21
15.35621879937349
 31
0.0
  0
LINE
  5
1D7
  8
CUT
 10
22.85345519522534
 20
15.35621879937349
 30
0.0
 11
22.69206539916835
 21
15.29501172318812
 31
0.0
  0
LINE
  5
1D8
  8
CUT
 10
22.69206539916835
 20
15.29501172318812
 30
0.0
 11
22.52865913679877
 21
15.23941167044643
 31
0.0
  0
LINE
  5
1D9
  8
CUT
 10
22.52865913679877
 20
15.23941167044643
 30
0.0
 11
22.36343114244747
 21
15.189484900782
 31
0.0
  0
LINE
  5
1DA
  8
CUT
 10
22.36343114244747
 20
15.189484900782
 30
0.0
 11
22.19657832143779
 21
15.14529091286974
 31
0.0
  0
LINE
  5
1DB
  8
CUT
 10
22.19657832143779
 20
15.14529091286974
 30
0.0
 11
22.02829951542968
 21
15.10688237352022
 31
0.0
  0
LINE
  5
1DC
  8
CUT
 10
22.02829951542968
 20
15.10688237352022
 30
0.0
 11
21.85879526545638
 21
15.07430505491563
 31
0.0
  0
LINE
  5
1DD
  8
CUT
 10
21.85879526545638
 20
15.07430505491563
 30
0.0
 11
21.68826757293584
 21
15.04759778006218
 31
0.0
  0
LINE
  5
1DE
  8
CUT
 10
21.68826757293584
 20
15.04759778006218
 30
0.0
 11
21.51691965894185
 21
15.02679237652404
 31
0.0
  0
LINE
  5
1DF
  8
CUT
 10
21.51691965894185
 20
15.02679237652404
 30
0.0
 11
21.34495572202162
 21
15.01191363849376
 31
0.0
  0
LINE
  5
1E0
  8
CUT
 10
21.34495572202162
 20
15.01191363849376
 30
0.0
 11
21.17258069484854
 21
15.00297929724465
 31
0.0
  0
LINE
  5
1E1
  8
CUT
 10
21.17258069484854
 20
15.00297929724465
 30
0.0
 11
21.0
 21
15.0
 31
0.0
  0
LINE
  5
1E2
  8
CUT
 10
21.0
 20
15.0
 30
0.0
 11
17.0
 21
15.0
 31
0.0
  0
ENDSEC
  0
EOF
