  0
SECTION
  2
HEADER
  9
$ACADVER
  1
AC1009
  9
$DWGCODEPAGE
  3
ansi_1252
  9
$INSBASE
 10
0.0
 20
0.0
 30
0.0
  9
$EXTMIN
 10
1.000000000000000E+20
 20
1.000000000000000E+20
 30
1.000000000000000E+20
  9
$EXTMAX
 10
-1.000000000000000E+20
 20
-1.000000000000000E+20
 30
-1.000000000000000E+20
  9
$LIMMIN
 10
0.0
 20
0.0
  9
$LIMMAX
 10
12.0
 20
9.0
  9
$ORTHOMODE
 70
     0
  9
$REGENMODE
 70
     1
  9
$FILLMODE
 70
     1
  9
$QTEXTMODE
 70
     0
  9
$MIRRTEXT
 70
     1
  9
$DRAGMODE
 70
     2
  9
$LTSCALE
 40
1.0
  9
$OSMODE
 70
    37
  9
$ATTMODE
 70
     1
  9
$TEXTSIZE
 40
0.2
  9
$TRACEWID
 40
0.05
  9
$TEXTSTYLE
  7
STANDARD
  9
$CLAYER
  8
TEST
  9
$CELTYPE
  6
BYLAYER
  9
$CECOLOR
 62
   256
  9
$DIMSCALE
 40
1.0
  9
$DIMASZ
 40
0.18
  9
$DIMEXO
 40
0.0625
  9
$DIMDLI
 40
0.38
  9
$DIMRND
 40
0.0
  9
$DIMDLE
 40
0.0
  9
$DIMEXE
 40
0.18
  9
$DIMTP
 40
0.0
  9
$DIMTM
 40
0.0
  9
$DIMTXT
 40
0.18
  9
$DIMCEN
 40
0.09
  9
$DIMTSZ
 40
0.0
  9
$DIMTOL
 70
     0
  9
$DIMLIM
 70
     0
  9
$DIMTIH
 70
     1
  9
$DIMTOH
 70
     1
  9
$DIMSE1
 70
     0
  9
$DIMSE2
 70
     0
  9
$DIMTAD
 70
     0
  9
$DIMZIN
 70
     0
  9
$DIMBLK
  1

  9
$DIMASO
 70
     1
  9
$DIMSHO
 70
     1
  9
$DIMPOST
  1

  9
$DIMAPOST
  1

  9
$DIMALT
 70
     0
  9
$DIMALTD
 70
     2
  9
$DIMALTF
 40
25.4
  9
$DIMLFAC
 40
1.0
  9
$DIMTOFL
 70
     0
  9
$DIMTVP
 40
0.0
  9
$DIMTIX
 70
     0
  9
$DIMSOXD
 70
     0
  9
$DIMSAH
 70
     0
  9
$DIMBLK1
  1

  9
$DIMBLK2
  1

  9
$DIMSTYLE
  2
STANDARD_ACAD
  9
$DIMCLRD
 70
     0
  9
$DIMCLRE
 70
     0
  9
$DIMCLRT
 70
     0
  9
$DIMTFAC
 40
1.0
  9
$DIMGAP
 40
0.09
  9
$LUNITS
 70
     2
  9
$LUPREC
 70
     3
  9
$SKETCHINC
 40
0.1
  9
$FILLETRAD
 40
0.5
  9
$AUNITS
 70
     0
  9
$AUPREC
 70
     0
  9
$MENU
  1
.
  9
$ELEVATION
 40
0.0
  9
$PELEVATION
 40
0.0
  9
$THICKNESS
 40
0.0
  9
$LIMCHECK
 70
     0
  9
$CHAMFERA
 40
0.0
  9
$CHAMFERB
 40
0.0
  9
$SKPOLY
 70
     0
  9
$TDCREATE
 40
2459256.460215428
  9
$TDUPDATE
 40
2459256.460239109
  9
$TDINDWG
 40
0.0000000116
  9
$TDUSRTIMER
 40
0.0000000116
  9
$USRTIMER
 70
     1
  9
$ANGBASE
 50
0.0
  9
$ANGDIR
 70
     0
  9
$PDMODE
 70
     0
  9
$PDSIZE
 40
0.0
  9
$PLINEWID
 40
0.0
  9
$COORDS
 70
     1
  9
$SPLFRAME
 70
     0
  9
$SPLINETYPE
 70
     6
  9
$SPLINESEGS
 70
     8
  9
$ATTDIA
 70
     0
  9
$ATTREQ
 70
     1
  9
$HANDLING
 70
     1
  9
$HANDSEED
  5
D4
  9
$SURFTAB1
 70
     6
  9
$SURFTAB2
 70
     6
  9
$SURFTYPE
 70
     6
  9
$SURFU
 70
     6
  9
$SURFV
 70
     6
  9
$UCSNAME
  2

  9
$UCSORG
 10
0.0
 20
0.0
 30
0.0
  9
$UCSXDIR
 10
1.0
 20
0.0
 30
0.0
  9
$UCSYDIR
 10
0.0
 20
1.0
 30
0.0
  9
$PUCSNAME
  2

  9
$PUCSORG
 10
0.0
 20
0.0
 30
0.0
  9
$PUCSXDIR
 10
1.0
 20
0.0
 30
0.0
  9
$PUCSYDIR
 10
0.0
 20
1.0
 30
0.0
  9
$USERI1
 70
     0
  9
$USERI2
 70
     0
  9
$USERI3
 70
     0
  9
$USERI4
 70
     0
  9
$USERI5
 70
     0
  9
$USERR1
 40
0.0
  9
$USERR2
 40
0.0
  9
$USERR3
 40
0.0
  9
$USERR4
 40
0.0
  9
$USERR5
 40
0.0
  9
$WORLDVIEW
 70
     1
  9
$SHADEDGE
 70
     3
  9
$SHADEDIF
 70
    70
  9
$TILEMODE
 70
     1
  9
$MAXACTVP
 70
    64
  9
$PLIMCHECK
 70
     0
  9
$PEXTMIN
 10
1.000000000000000E+20
 20
1.000000000000000E+20
 30
1.000000000000000E+20
  9
$PEXTMAX
 10
-1.000000000000000E+20
 20
-1.000000000000000E+20
 30
-1.000000000000000E+20
  9
$PLIMMIN
 10
0.0
 20
0.0
  9
$PLIMMAX
 10
12.0
 20
9.0
  9
$UNITMODE
 70
     0
  9
$VISRETAIN
 70
     1
  9
$PLINEGEN
 70
     0
  9
$PSLTSCALE
 70
     1
  0
ENDSEC
  0
SECTION
  2
TABLES
  0
TABLE
  2
VPORT
 70
     1
  0
VPORT
  2
*ACTIVE
 70
     0
 10
0.0
 20
0.0
 11
1.0
 21
1.0
 12
10.42990654205607
 22
4.5
 13
0.0
 23
0.0
 14
0.5
 24
0.5
 15
0.5
 25
0.5
 16
0.0
 26
0.0
 36
1.0
 17
0.0
 27
0.0
 37
0.0
 40
9.0
 41
1.972972972850329
 42
50.0
 43
0.0
 44
0.0
 50
0.0
 51
0.0
 71
     0
 72
   100
 73
     1
 74
     3
 75
     0
 76
     0
 77
     0
 78
     0
  0
ENDTAB
  0
TABLE
  2
LTYPE
 70
     1
  0
LTYPE
  2
CONTINUOUS
 70
     0
  3
Solid line
 72
    65
 73
     0
 40
0.0
  0
ENDTAB
  0
TABLE
  2
LAYER
 70
     2
  0
LAYER
  2
0
 70
     0
 62
     7
  6
CONTINUOUS
  0
LAYER
  2
TEST
 70
     0
 62
     1
  6
CONTINUOUS
  0
ENDTAB
  0
TABLE
  2
STYLE
 70
     1
  0
STYLE
  2
STANDARD
 70
     0
 40
0.0
 41
1.0
 50
0.0
 71
     0
 42
0.2
  3
txt
  4

  0
ENDTAB
  0
TABLE
  2
VIEW
 70
     0
  0
ENDTAB
  0
TABLE
  2
UCS
 70
     0
  0
ENDTAB
  0
TABLE
  2
APPID
 70
     1
  0
APPID
  2
ACAD
 70
     0
  0
ENDTAB
  0
TABLE
  2
DIMSTYLE
 70
     1
  0
DIMSTYLE
  2
STANDARD_ACAD
 70
     0
  3

  4

  5

  6

  7

 40
1.0
 41
0.18
 42
0.0625
 43
0.38
 44
0.18
 45
0.0
 46
0.0
 47
0.0
 48
0.0
140
0.18
141
0.09
142
0.0
143
25.4
144
1.0
145
0.0
146
1.0
147
0.09
 71
     0
 72
     0
 73
     1
 74
     1
 75
     0
 76
     0
 77
     0
 78
     0
170
     0
171
     2
172
     0
173
     0
174
     0
175
     0
176
     0
177
     0
178
     0
  0
ENDTAB
  0
ENDSEC
  0
SECTION
  2
BLOCKS
  0
BLOCK
  8
0
  2
$MODEL_SPACE
 70
     0
 10
0.0
 20
0.0
 30
0.0
  3
$MODEL_SPACE
  1

  0
ENDBLK
  5
21
  8
0
  0
BLOCK
 67
     1
  8
0
  2
$PAPER_SPACE
 70
     0
 10
0.0
 20
0.0
 30
0.0
  3
$PAPER_SPACE
  1

  0
ENDBLK
  5
1D
 67
     1
  8
0
  0
ENDSEC
  0
SECTION
  2
ENTITIES
  0
LINE
  5
6F
  8
TEST
 10
5.0
 20
10.0
 30
0.0
 11
5.17258069484854
 21
9.997020702755352
 31
0.0
  0
LINE
  5
70
  8
TEST
 10
5.17258069484854
 20
9.997020702755352
 30
0.0
 11
5.344955722021624
 21
9.988086361506237
 31
0.0
  0
LINE
  5
71
  8
TEST
 10
5.344955722021624
 20
9.988086361506237
 30
0.0
 11
5.516919658941851
 21
9.973207623475965
 31
0.0
  0
LINE
  5
72
  8
TEST
 10
5.516919658941851
 20
9.973207623475965
 30
0.0
 11
5.688267572935841
 21
9.952402219937817
 31
0.0
  0
LINE
  5
73
  8
TEST
 10
5.688267572935841
 20
9.952402219937817
 30
0.0
 11
5.85879526545638
 21
9.92569494508437
 31
0.0
  0
LINE
  5
74
  8
TEST
 10
5.85879526545638
 20
9.92569494508437
 30
0.0
 11
6.028299515429683
 21
9.893117626479775
 31
0.0
  0
LINE
  5
75
  8
TEST
 10
6.028299515429683
 20
9.893117626479775
 30
0.0
 11
6.196578321437789
 21
9.85470908713026
 31
0.0
  0
LINE
  5
76
  8
TEST
 10
6.196578321437789
 20
9.85470908713026
 30
0.0
 11
6.363431142447469
 21
9.810515099218003
 31
0.0
  0
LINE
  5
77
  8
TEST
 10
6.363431142447469
 20
9.810515099218003
 30
0.0
 11
6.528659136798765
 21
9.76058832955357
 31
0.0
  0
LINE
  5
78
  8
TEST
 10
6.528659136798765
 20
9.76058832955357
 30
0.0
 11
6.692065399168352
 21
9.704988276811882
 31
0.0
  0
LINE
  5
79
  8
TEST
 10
6.692065399168352
 20
9.704988276811882
 30
0.0
 11
6.853455195225338
 21
9.643781200626512
 31
0.0
  0
LINE
  5
7A
  8
TEST
 10
6.853455195225338
 20
9.643781200626512
 30
0.0
 11
7.012636193699838
 21
9.57704004262683
 31
0.0
  0
LINE
  5
7B
  8
TEST
 10
7.012636193699838
 20
9.57704004262683
 30
0.0
 11
7.16941869558779
 21
9.504844339512097
 31
0.0
  0
LINE
  5
7C
  8
TEST
 10
7.16941869558779
 20
9.504844339512097
 30
0.0
 11
7.323615860218843
 21
9.42728012826605
 31
0.0
  0
LINE
  5
7D
  8
TEST
 10
7.323615860218843
 20
9.42728012826605
 30
0.0
 11
7.475043927917907
 21
9.344439843625032
 31
0.0
  0
LINE
  5
7E
  8
TEST
 10
7.475043927917907
 20
9.344439843625032
 30
0.0
 11
7.623522438995041
 21
9.256422207921755
 31
0.0
  0
LINE
  5
7F
  8
TEST
 10
7.623522438995041
 20
9.256422207921755
 30
0.0
 11
7.768874448802666
 21
9.16333211343603
 31
0.0
  0
LINE
  5
80
  8
TEST
 10
7.768874448802666
 20
9.16333211343603
 30
0.0
 11
7.910926738603854
 21
9.065280497392664
 31
0.0
  0
LINE
  5
81
  8
TEST
 10
7.910926738603854
 20
9.065280497392664
 30
0.0
 11
8.049510022000364
 21
8.962384209755452
 31
0.0
  0
LINE
  5
82
  8
TEST
 10
8.049510022000364
 20
8.962384209755452
 30
0.0
 11
8.184459146674445
 21
8.854765873974898
 31
0.0
  0
LINE
  5
83
  8
TEST
 10
8.184459146674445
 20
8.854765873974898
 30
0.0
 11
8.315613291203976
 21
8.742553740855506
 31
0.0
  0
LINE
  5
84
  8
TEST
 10
8.315613291203976
 20
8.742553740855506
 30
0.0
 11
8.442816156716386
 21
8.625881535716882
 31
0.0
  0
LINE
  5
85
  8
TEST
 10
8.442816156716386
 20
8.625881535716882
 30
0.0
 11
8.565916153152981
 21
8.504888299030746
 31
0.0
  0
LINE
  5
86
  8
TEST
 10
8.565916153152981
 20
8.504888299030746
 30
0.0
 11
8.684766579921684
 21
8.37971822072377
 31
0.0
  0
LINE
  5
87
  8
TEST
 10
8.684766579921684
 20
8.37971822072377
 30
0.0
 11
8.799225800722894
 21
8.250520468343721
 31
0.0
  0
LINE
  5
88
  8
TEST
 10
8.799225800722894
 20
8.250520468343721
 30
0.0
 11
8.90915741234015
 21
8.117449009293667
 31
0.0
  0
LINE
  5
89
  8
TEST
 10
8.90915741234015
 20
8.117449009293667
 30
0.0
 11
9.014430407194412
 21
7.980662427346127
 31
0.0
  0
LINE
  5
8A
  8
TEST
 10
9.014430407194412
 20
7.980662427346127
 30
0.0
 11
9.114919329468282
 21
7.840323733655779
 31
0.0
  0
LINE
  5
8B
  8
TEST
 10
9.114919329468282
 20
7.840323733655779
 30
0.0
 11
9.210504424614058
 21
7.696600172495996
 31
0.0
  0
LINE
  5
8C
  8
TEST
 10
9.210504424614058
 20
7.696600172495996
 30
0.0
 11
9.301071782067503
 21
7.549663021950678
 31
0.0
  0
LINE
  5
8D
  8
TEST
 10
9.301071782067503
 20
7.549663021950678
 30
0.0
 11
9.38651347099721
 21
7.399687389798932
 31
0.0
  0
LINE
  5
8E
  8
TEST
 10
9.38651347099721
 20
7.399687389798932
 30
0.0
 11
9.466727668927815
 21
7.246852004835807
 31
0.0
  0
LINE
  5
8F
  8
TEST
 10
9.466727668927815
 20
7.246852004835807
 30
0.0
 11
9.54161878308377
 21
7.091339003877826
 31
0.0
  0
LINE
  5
90
  8
TEST
 10
9.54161878308377
 20
7.091339003877826
 30
0.0
 11
9.611097564309052
 21
6.933333714707095
 31
0.0
  0
LINE
  5
91
  8
TEST
 10
9.611097564309052
 20
6.933333714707095
 30
0.0
 11
9.675081213427074
 21
6.773024435212678
 31
0.0
  0
LINE
  5
92
  8
TEST
 10
9.675081213427074
 20
6.773024435212678
 30
0.0
 11
9.73349347991403
 21
6.610602208992453
 31
0.0
  0
LINE
  5
93
  8
TEST
 10
9.73349347991403
 20
6.610602208992453
 30
0.0
 11
9.78626475276808
 21
6.446260597682838
 31
0.0
  0
LINE
  5
94
  8
TEST
 10
9.78626475276808
 20
6.446260597682838
 30
0.0
 11
9.833332143466098
 21
6.280195450287736
 31
0.0
  0
LINE
  5
95
  8
TEST
 10
9.833332143466098
 20
6.280195450287736
 30
0.0
 11
9.874639560909118
 21
6.112604669781572
 31
0.0
  0
LINE
  5
96
  8
TEST
 10
9.874639560909118
 20
6.112604669781572
 30
0.0
 11
9.910137778267153
 21
5.943687977264583
 31
0.0
  0
LINE
  5
97
  8
TEST
 10
9.910137778267153
 20
5.943687977264583
 30
0.0
 11
9.939784491643731
 21
5.773646673951406
 31
0.0
  0
LINE
  5
98
  8
TEST
 10
9.939784491643731
 20
5.773646673951406
 30
0.0
 11
9.96354437049027
 21
5.602683401276615
 31
0.0
  0
LINE
  5
99
  8
TEST
 10
9.96354437049027
 20
5.602683401276615
 30
0.0
 11
9.981389099710132
 21
5.431001899403096
 31
0.0
  0
LINE
  5
9A
  8
TEST
 10
9.981389099710132
 20
5.431001899403096
 30
0.0
 11
9.993297413402281
 21
5.258806764421046
 31
0.0
  0
LINE
  5
9B
  8
TEST
 10
9.993297413402281
 20
5.258806764421046
 30
0.0
 11
9.999255120204246
 21
5.086303204526943
 31
0.0
  0
LINE
  5
9C
  8
TEST
 10
9.999255120204246
 20
5.086303204526943
 30
0.0
 11
9.999255120204246
 21
4.913696795473057
 31
0.0
  0
LINE
  5
9D
  8
TEST
 10
9.999255120204246
 20
4.913696795473057
 30
0.0
 11
9.993297413402281
 21
4.741193235578952
 31
0.0
  0
LINE
  5
9E
  8
TEST
 10
9.993297413402281
 20
4.741193235578952
 30
0.0
 11
9.981389099710132
 21
4.568998100596902
 31
0.0
  0
LINE
  5
9F
  8
TEST
 10
9.981389099710132
 20
4.568998100596902
 30
0.0
 11
9.96354437049027
 21
4.397316598723384
 31
0.0
  0
LINE
  5
A0
  8
TEST
 10
9.96354437049027
 20
4.397316598723384
 30
0.0
 11
9.939784491643731
 21
4.226353326048593
 31
0.0
  0
LINE
  5
A1
  8
TEST
 10
9.939784491643731
 20
4.226353326048593
 30
0.0
 11
9.910137778267153
 21
4.056312022735417
 31
0.0
  0
LINE
  5
A2
  8
TEST
 10
9.910137778267153
 20
4.056312022735417
 30
0.0
 11
9.874639560909118
 21
3.887395330218427
 31
0.0
  0
LINE
  5
A3
  8
TEST
 10
9.874639560909118
 20
3.887395330218427
 30
0.0
 11
9.833332143466098
 21
3.719804549712264
 31
0.0
  0
LINE
  5
A4
  8
TEST
 10
9.833332143466098
 20
3.719804549712264
 30
0.0
 11
9.78626475276808
 21
3.553739402317162
 31
0.0
  0
LINE
  5
A5
  8
TEST
 10
9.78626475276808
 20
3.553739402317162
 30
0.0
 11
9.73349347991403
 21
3.389397791007545
 31
0.0
  0
LINE
  5
A6
  8
TEST
 10
9.73349347991403
 20
3.389397791007545
 30
0.0
 11
9.675081213427074
 21
3.226975564787322
 31
0.0
  0
LINE
  5
A7
  8
TEST
 10
9.675081213427074
 20
3.226975564787322
 30
0.0
 11
9.611097564309052
 21
3.066666285292906
 31
0.0
  0
LINE
  5
A8
  8
TEST
 10
9.611097564309052
 20
3.066666285292906
 30
0.0
 11
9.54161878308377
 21
2.908660996122173
 31
0.0
  0
LINE
  5
A9
  8
TEST
 10
9.54161878308377
 20
2.908660996122173
 30
0.0
 11
9.466727668927815
 21
2.753147995164193
 31
0.0
  0
LINE
  5
AA
  8
TEST
 10
9.466727668927815
 20
2.753147995164193
 30
0.0
 11
9.386513470997208
 21
2.600312610201067
 31
0.0
  0
LINE
  5
AB
  8
TEST
 10
9.386513470997208
 20
2.600312610201067
 30
0.0
 11
9.301071782067503
 21
2.450336978049319
 31
0.0
  0
LINE
  5
AC
  8
TEST
 10
9.301071782067503
 20
2.450336978049319
 30
0.0
 11
9.21050442461406
 21
2.303399827504005
 31
0.0
  0
LINE
  5
AD
  8
TEST
 10
9.21050442461406
 20
2.303399827504005
 30
0.0
 11
9.114919329468282
 21
2.15967626634422
 31
0.0
  0
LINE
  5
AE
  8
TEST
 10
9.114919329468282
 20
2.15967626634422
 30
0.0
 11
9.014430407194412
 21
2.019337572653874
 31
0.0
  0
LINE
  5
AF
  8
TEST
 10
9.014430407194412
 20
2.019337572653874
 30
0.0
 11
8.90915741234015
 21
1.882550990706333
 31
0.0
  0
LINE
  5
B0
  8
TEST
 10
8.90915741234015
 20
1.882550990706333
 30
0.0
 11
8.799225800722894
 21
1.749479531656277
 31
0.0
  0
LINE
  5
B1
  8
TEST
 10
8.799225800722894
 20
1.749479531656277
 30
0.0
 11
8.684766579921684
 21
1.620281779276229
 31
0.0
  0
LINE
  5
B2
  8
TEST
 10
8.684766579921684
 20
1.620281779276229
 30
0.0
 11
8.565916153152981
 21
1.495111700969253
 31
0.0
  0
LINE
  5
B3
  8
TEST
 10
8.565916153152981
 20
1.495111700969253
 30
0.0
 11
8.442816156716386
 21
1.374118464283117
 31
0.0
  0
LINE
  5
B4
  8
TEST
 10
8.442816156716386
 20
1.374118464283117
 30
0.0
 11
8.315613291203976
 21
1.257446259144494
 31
0.0
  0
LINE
  5
B5
  8
TEST
 10
8.315613291203976
 20
1.257446259144494
 30
0.0
 11
8.184459146674445
 21
1.145234126025101
 31
0.0
  0
LINE
  5
B6
  8
TEST
 10
8.184459146674445
 20
1.145234126025101
 30
0.0
 11
8.049510022000364
 21
1.037615790244548
 31
0.0
  0
LINE
  5
B7
  8
TEST
 10
8.049510022000364
 20
1.037615790244548
 30
0.0
 11
7.910926738603853
 21
0.9347195026073374
 31
0.0
  0
LINE
  5
B8
  8
TEST
 10
7.910926738603853
 20
0.9347195026073374
 30
0.0
 11
7.768874448802665
 21
0.8366678865639674
 31
0.0
  0
LINE
  5
B9
  8
TEST
 10
7.768874448802665
 20
0.8366678865639674
 30
0.0
 11
7.623522438995039
 21
0.7435777920782431
 31
0.0
  0
LINE
  5
BA
  8
TEST
 10
7.623522438995039
 20
0.7435777920782431
 30
0.0
 11
7.475043927917907
 21
0.6555601563749676
 31
0.0
  0
LINE
  5
BB
  8
TEST
 10
7.475043927917907
 20
0.6555601563749676
 30
0.0
 11
7.323615860218841
 21
0.5727198717339501
 31
0.0
  0
LINE
  5
BC
  8
TEST
 10
7.323615860218841
 20
0.5727198717339501
 30
0.0
 11
7.169418695587791
 21
0.4951556604879048
 31
0.0
  0
LINE
  5
BD
  8
TEST
 10
7.169418695587791
 20
0.4951556604879048
 30
0.0
 11
7.012636193699838
 21
0.4229599573731688
 31
0.0
  0
LINE
  5
BE
  8
TEST
 10
7.012636193699838
 20
0.4229599573731688
 30
0.0
 11
6.853455195225336
 21
0.3562187993734875
 31
0.0
  0
LINE
  5
BF
  8
TEST
 10
6.853455195225336
 20
0.3562187993734875
 30
0.0
 11
6.692065399168352
 21
0.295011723188118
 31
0.0
  0
LINE
  5
C0
  8
TEST
 10
6.692065399168352
 20
0.295011723188118
 30
0.0
 11
6.528659136798765
 21
0.2394116704464295
 31
0.0
  0
LINE
  5
C1
  8
TEST
 10
6.528659136798765
 20
0.2394116704464295
 30
0.0
 11
6.363431142447468
 21
0.1894849007819968
 31
0.0
  0
LINE
  5
C2
  8
TEST
 10
6.363431142447468
 20
0.1894849007819968
 30
0.0
 11
6.196578321437789
 21
0.1452909128697399
 31
0.0
  0
LINE
  5
C3
  8
TEST
 10
6.196578321437789
 20
0.1452909128697399
 30
0.0
 11
6.028299515429683
 21
0.1068823735202233
 31
0.0
  0
LINE
  5
C4
  8
TEST
 10
6.028299515429683
 20
0.1068823735202233
 30
0.0
 11
5.858795265456379
 21
0.074305054915631
 31
0.0
  0
LINE
  5
C5
  8
TEST
 10
5.858795265456379
 20
0.074305054915631
 30
0.0
 11
5.68826757293584
 21
0.0475977800621843
 31
0.0
  0
LINE
  5
C6
  8
TEST
 10
5.68826757293584
 20
0.0475977800621843
 30
0.0
 11
5.51691965894185
 21
0.0267923765240363
 31
0.0
  0
LINE
  5
C7
  8
TEST
 10
5.51691965894185
 20
0.0267923765240363
 30
0.0
 11
5.344955722021624
 21
0.0119136384937617
 31
0.0
  0
LINE
  5
C8
  8
TEST
 10
5.344955722021624
 20
0.0119136384937617
 30
0.0
 11
5.172580694848541
 21
0.0029792972446483
 31
0.0
  0
LINE
  5
C9
  8
TEST
 10
5.172580694848541
 20
0.0029792972446483
 30
0.0
 11
5.0
 21
0.0
 31
0.0
  0
LINE
  5
CA
  8
TEST
 10
5.0
 20
0.0
 30
0.0
 11
0.0
 21
0.0
 31
0.0
  0
LINE
  5
CB
  8
TEST
 10
0.0
 20
0.0
 30
0.0
 11
0.0
 21
10.0
 31
0.0
  0
LINE
  5
CC
  8
TEST
 10
0.0
 20
10.0
 30
0.0
 11
5.0
 21
10.0
 31
0.0
  0
ENDSEC
  0
EOF
